<svg xmlns="http://www.w3.org/2000/svg" viewBox="0 0 146.48 73.97"><defs><style>.cls-1{fill:#fff;}</style></defs><g id="Livello_2" data-name="Livello 2"><g id="Livello_1-2" data-name="Livello 1"><path class="cls-1" d="M146.48,74l0-1.46A73.22,73.22,0,0,0,0,72.51L0,74ZM118.22,29.3a62.48,62.48,0,0,1,17.89,43.21H75ZM74,71.47V10.37a62.51,62.51,0,0,1,43.21,17.89Zm-1.46,0L29.3,28.26A62.44,62.44,0,0,1,72.51,10.37ZM28.26,29.3,71.47,72.51H10.36A62.55,62.55,0,0,1,28.26,29.3Zm45-27.84A71.86,71.86,0,0,1,145,72.51h-7.43a64.34,64.34,0,0,0-128.67,0H1.48A71.86,71.86,0,0,1,73.24,1.46Z"/></g></g></svg>