<svg xmlns="http://www.w3.org/2000/svg" viewBox="0 0 146.73 74.22"><defs><style>.cls-1{fill:#160f0f;stroke:#1d1d1b;stroke-miterlimit:10;stroke-width:0.25px;}</style></defs><g id="Livello_2" data-name="Livello 2"><g id="Livello_1-2" data-name="Livello 1"><path class="cls-1" d="M146.61,74.1l0-1.47a73.22,73.22,0,0,0-146.44,0l0,1.47ZM118.34,29.42a62.46,62.46,0,0,1,17.9,43.21H75.13ZM74.1,71.6V10.5a62.47,62.47,0,0,1,43.21,17.89Zm-1.46,0L29.42,28.39A62.43,62.43,0,0,1,72.64,10.5ZM28.39,29.42,71.6,72.63H10.49A62.49,62.49,0,0,1,28.39,29.42Zm45-27.83a71.85,71.85,0,0,1,71.76,71H137.7A64.36,64.36,0,0,0,27.85,27.84,64,64,0,0,0,9,72.63H1.61A71.84,71.84,0,0,1,73.37,1.59Z"/></g></g></svg>