<svg xmlns="http://www.w3.org/2000/svg" viewBox="0 0 180 78.88"><defs><style>.cls-1{fill:#f4ea6b;}.cls-2{fill:none;stroke-width:0.5px;}.cls-2,.cls-3{stroke:#1d1d1b;stroke-miterlimit:10;}.cls-3{fill:#160f0f;stroke-width:0.25px;}</style></defs><g id="Livello_2" data-name="Livello 2"><g id="Livello_1-2" data-name="Livello 1"><path class="cls-1" d="M146.48,74l0-1.46A73.22,73.22,0,0,0,0,72.51L0,74Z"/><line class="cls-2" x1="179.75" y1="68.86" x2="179.75" y2="68.83"/><path class="cls-3" d="M161.83,78.75l0-1.46a73.22,73.22,0,0,0-146.44,0l0,1.46ZM133.57,34.08a62.39,62.39,0,0,1,17.89,43.21H90.36ZM89.32,76.26V15.15A62.55,62.55,0,0,1,132.53,33Zm-1.46,0L44.65,33A62.45,62.45,0,0,1,87.86,15.15ZM43.61,34.08,86.83,77.29H25.72A62.51,62.51,0,0,1,43.61,34.08Zm45-27.84a71.85,71.85,0,0,1,71.76,71.05h-7.43a64.34,64.34,0,0,0-128.67,0H16.83A71.86,71.86,0,0,1,88.59,6.24Z"/></g></g></svg>