<svg xmlns="http://www.w3.org/2000/svg" viewBox="0 0 349.03 313.87"><defs><style>.cls-1{fill:#fff;}</style></defs><g id="Livello_2" data-name="Livello 2"><g id="Livello_1-2" data-name="Livello 1"><path class="cls-1" d="M19.42,281.92a1,1,0,0,1,.9,1,.89.89,0,0,1-1,1H.91A.86.86,0,0,1,0,283a1,1,0,0,1,.85-1.09c3.44-.91,3.69-3.51,3.81-6.53l.84-25a3.92,3.92,0,0,0-3.69-4.3,1,1,0,0,1,.19-2H9.44c3,0,7.13-.37,12.88-.37,9.68,0,13.25,5.51,13.25,11.68,0,7.62-5.81,15.54-18,15.54H13.25l-.19,5.32C13.06,280.29,15.24,281.44,19.42,281.92Zm7.92-23.71c0-8.77-6.9-11.61-12.22-11.61-.66,0-1,.24-1,.84l-.66,17.66a1.76,1.76,0,0,0,.78,1.64,8.72,8.72,0,0,0,4,.91C24.07,267.65,27.34,263.71,27.34,258.21Z"/><path class="cls-1" d="M52,254.94l-.48,6.6c0,.18.06.24.12.24s.12-.06.18-.18c1.69-3.75,6-7.81,9.62-7.81,2.05,0,2.35,3.51,2.35,7.75,0,1.57-.48,3.08-1.63,3.08a2.59,2.59,0,0,1-1.63-.6c-1-.67-2.48-2.3-4.6-2.3-3,0-4.11,3.14-4.23,6l-.31,7.74c0,4.23,2.12,5.74,6.78,6.47a.94.94,0,0,1,.79,1,1,1,0,0,1-1,1H39.68a.91.91,0,0,1-1-.91,1.06,1.06,0,0,1,.91-1.09c3.51-.85,3.69-3.45,3.81-6.59l.42-11.86c0-2.3-1.39-3.27-4.41-3.27a1.42,1.42,0,0,1-.42-1,1.46,1.46,0,0,1,1.33-1.39,23.46,23.46,0,0,0,6.95-2.66A4.82,4.82,0,0,1,50,254.1,2.41,2.41,0,0,1,52,254.94Z"/><path class="cls-1" d="M72.71,263.17c0-2.3-1.45-3.27-4.48-3.27a1.31,1.31,0,0,1-.42-1,1.32,1.32,0,0,1,1.27-1.34,19.83,19.83,0,0,0,7-2.78,5.79,5.79,0,0,1,2.72-1,2.53,2.53,0,0,1,2.06.85l-.73,21.72c0,2.54.24,5,3.39,5.56a.88.88,0,0,1,.78,1,1,1,0,0,1-1,1H68.29a.84.84,0,0,1-.84-.91,1,1,0,0,1,.78-1.09c3.45-.73,3.94-3.09,4.06-6.59Zm8.89-19.48c0,3.15-1.93,4.9-5,4.9-3.27,0-4.6-1.69-4.6-4.23,0-3.15,1.88-4.9,5-4.9C80.21,239.46,81.6,241.15,81.6,243.69Z"/><path class="cls-1" d="M90.8,260.69a5.11,5.11,0,0,0-4.6-3.81,1,1,0,0,1-.79-1.09.93.93,0,0,1,1-1h15.79a.91.91,0,0,1,1,1c0,.54-.24,1-.9,1-1.88,0-2.78.78-2.78,2.18a5.41,5.41,0,0,0,.24,1.63l5.44,17.9h.3l7.14-17.9a3.67,3.67,0,0,0,.3-1.45c0-1.88-2.05-2.3-4.23-2.36a.93.93,0,0,1-.91-1,.94.94,0,0,1,1-1h12.76a1,1,0,0,1,1,1,1,1,0,0,1-1,1.09c-2.36.12-3.45,1.21-4.53,3.81l-9.92,22.92c-.19.49-1.58.79-4,.85s-3.81-.3-4-.73Z"/><path class="cls-1" d="M128.12,266c-1.76,0-4.18-1.51-4.18-3.2s2-3.81,3.51-5A16.84,16.84,0,0,1,138.1,254c6.41,0,11.25,3.38,11.25,11.61L149,275.87c0,3,1.27,4.72,3.21,4.72h.67c.6,0,.9.06.9.66,0,1.64-4.11,3-6.77,3-3.81,0-5.63-2.36-5.63-5.45,0-.06-.06-.06-.18-.06s-.24,0-.24.06a10,10,0,0,1-9.25,5.69c-5.15,0-8.47-3.81-8.47-9.07a2.94,2.94,0,0,1,1.33-2.72c2.9-2.3,9.74-4.6,15.66-5.75.79-.12,1.21-.24,1.21-1.33,0-5-3.26-6.9-7-6.9-1.76,0-4,.31-4,1.82C130.36,264.08,129.87,266,128.12,266Zm7.38,13.49c4.9,0,5.86-5.26,5.86-8.47V269.4a.28.28,0,0,0-.3-.3.45.45,0,0,0-.24.06c-2.78.72-9.92,3-9.92,4.9C130.9,277,132.65,279.44,135.5,279.44Z"/><path class="cls-1" d="M160.3,259.72c0-.3-.12-.42-.49-.42h-4.05c-.48-.06-.66-.55-.66-1.21s.18-1.21.72-1.33a14.39,14.39,0,0,0,10-9.56c.12-.48.85-.72,1.51-.72s1.4.3,1.4.9l-.31,7.5c0,.24.06.43.43.43h8.59c.66.12.9.72.9,1.39s-.36,1.57-1,1.69l-8.95.91L167.86,273c0,1.75.18,3.39,1.21,4.47a5.11,5.11,0,0,0,3.75,1.46,6.71,6.71,0,0,0,4.6-1.82,1.43,1.43,0,0,1,.54-.18.87.87,0,0,1,.85,1,1.7,1.7,0,0,1-.24.78,12.05,12.05,0,0,1-10.41,5.93,8.18,8.18,0,0,1-6.41-2.48c-1.45-1.63-1.94-4-1.94-6.59Z"/><path class="cls-1" d="M209.05,262.62a4.38,4.38,0,0,1-3.14,4.42c-3.69,1.39-13.19,2.48-16.88,2.48a.32.32,0,0,0-.36.36,12.13,12.13,0,0,0,1.09,3.39,10.35,10.35,0,0,0,9.37,5.2,12.31,12.31,0,0,0,9-3.81,1,1,0,0,1,.79-.42.82.82,0,0,1,.85.78,1.52,1.52,0,0,1-.06.49c-2.36,5.68-8.29,9.07-14.28,9.07-8.1-.06-13.61-5.87-13.61-13.67,0-9,7-17,16.45-17C204.76,253.91,209.05,258,209.05,262.62Zm-20.87,1.94a14,14,0,0,0-.18,2.24c0,.24.18.36.49.36,2.72,0,13.12-1.87,13.12-2.9a6.69,6.69,0,0,0-6.47-6.11C191.27,258.15,188.91,261,188.18,264.56Z"/><path class="cls-1" d="M238,243.39c7.74,0,10.16,2.24,10.16,7.62,0,1.27-.24,3.93-.24,4.54a1.18,1.18,0,0,1-1.21,1.33c-.61,0-1-.49-1.39-1.09-2.24-5-6.54-7.86-11.25-7.86-7.75,0-12.77,6-12.77,14.33,0,8.65,5.08,15.73,14.22,15.73,3.93,0,8-1.57,9.86-5.26a1.67,1.67,0,0,1,1.33-1,1.11,1.11,0,0,1,1,1.21c0,.54-.19,1.21-.25,2a8.59,8.59,0,0,1-2.72,5.51c-3.39,3-7.68,4.11-12.34,4.11-10.4,0-18.14-6.83-18.14-18.27C214.26,253.43,224.66,243.39,238,243.39Z"/><path class="cls-1" d="M283.7,264.38l-.43,11.55c0,3.45.49,5.32,3.39,6a1,1,0,0,1,.85,1,1,1,0,0,1-1,1H271.48a.82.82,0,0,1-.85-.91,1,1,0,0,1,.79-1.09c3.57-.85,3.87-3.21,4-6.53l.3-8.23c0-3.45-.66-7.56-5.14-7.56-5.26,0-6.77,5.26-6.89,10l-.25,6.78c0,3.08.49,4.9,3.21,5.5.54.18.85.48.85,1a1,1,0,0,1-1,1H251.64a.83.83,0,0,1-.91-.91,1,1,0,0,1,.85-1.09c3.39-.85,3.75-3.45,3.87-6.53l.85-26c0-2.3-1.46-3.33-4.48-3.33a1.35,1.35,0,0,1-.42-1,1.24,1.24,0,0,1,1.21-1.21,22.34,22.34,0,0,0,7.13-2.78,5.18,5.18,0,0,1,2.79-1.09,2.31,2.31,0,0,1,1.93.85l-.54,15.48a44.72,44.72,0,0,1-.43,5.27c0,.12.06.18.13.18a.13.13,0,0,0,.12-.12c2.05-4.72,6.17-7.69,10.82-7.69C281.46,253.91,283.7,258.75,283.7,264.38Z"/><path class="cls-1" d="M318.18,262.62A4.38,4.38,0,0,1,315,267c-3.69,1.39-13.19,2.48-16.88,2.48a.32.32,0,0,0-.36.36,12.47,12.47,0,0,0,1.09,3.39,10.36,10.36,0,0,0,9.38,5.2,12.33,12.33,0,0,0,8.95-3.81,1,1,0,0,1,.78-.42.81.81,0,0,1,.85.78,1.52,1.52,0,0,1-.06.49c-2.36,5.68-8.29,9.07-14.27,9.07-8.11-.06-13.61-5.87-13.61-13.67,0-9,7-17,16.45-17C313.88,253.91,318.18,258,318.18,262.62Zm-20.87,1.94a14,14,0,0,0-.18,2.24c0,.24.18.36.48.36,2.72,0,13.13-1.87,13.13-2.9a6.69,6.69,0,0,0-6.48-6.11C300.39,258.15,298,261,297.31,264.56Z"/><path class="cls-1" d="M347.45,245.81a7.22,7.22,0,0,1-5.8,2.24c-1.39,0-2.85-.31-4.12-.31-2,0-3.57,1-3.57,3.45a9.18,9.18,0,0,0,.73,3.09,1.34,1.34,0,0,0,1.39,1h9.2c.72,0,1,.72,1,1.39,0,.84-.42,1.63-1,1.69l-9.56.91-.55,16.15c0,4.23,2.6,5.87,7,6.47a1,1,0,0,1,.79,1,.9.9,0,0,1-.91,1H323.38a.86.86,0,0,1-.91-.91,1.06,1.06,0,0,1,.85-1.09c3.33-.91,3.75-3.45,3.87-6.53l.55-15.67a.39.39,0,0,0-.43-.42h-4.17c-.43,0-.73-.61-.73-1.27s.24-1.21.79-1.33c.72-.25,4.05-1.09,4.72-1.27A15.26,15.26,0,0,1,335,243.87a24.79,24.79,0,0,1,14-3.93C349,242.36,348.6,244.42,347.45,245.81Z"/><path class="cls-1" d="M124,312.46a8.92,8.92,0,0,1-4.84,1.41c-5.31,0-9.31-3.61-9.31-8.95a9,9,0,0,1,9.34-8.94,8.38,8.38,0,0,1,4.32,1.19l-.84,1.4a7.45,7.45,0,0,0-3.51-.91,7.07,7.07,0,0,0-7.36,7.26c0,4.42,3,7.27,7.39,7.27a7,7,0,0,0,3.85-1.14Z"/><path class="cls-1" d="M137.23,296.28h1.66l6,17.29h-2l-1.31-3.93H134l-1.49,3.93h-1.9ZM134.57,308H141l-3-9.11h0Z"/><path class="cls-1" d="M156.16,298v15.61h-1.83V298h-4.47v-1.68h10.77V298Z"/><path class="cls-1" d="M172.25,296.28h1.65l6,17.29h-2.05l-1.31-3.93H169l-1.48,3.93h-1.9ZM169.58,308H176l-3-9.11h0Z"/><path class="cls-1" d="M200,313.57l-10.3-13.88v13.88h-1.73V296.28h1.36l10.32,13.9v-13.9h1.73v17.29Z"/><path class="cls-1" d="M211.37,313.57V296.28h1.83v17.29Z"/><path class="cls-1" d="M227.85,296.28h1.65l6,17.29h-2.05l-1.31-3.93h-7.61l-1.48,3.93h-1.9ZM225.18,308h6.45l-3-9.11h0Z"/><path class="cls-1" d="M262.59,89.4l0-1.77a88.49,88.49,0,0,0-177,0l0,1.77Zm-34.15-54a75.42,75.42,0,0,1,21.62,52.22H176.21ZM175,86.38V12.53a75.53,75.53,0,0,1,52.22,21.63Zm-1.76,0L121,34.16A75.46,75.46,0,0,1,173.2,12.53Zm-53.48-51L172,87.63H98.09A75.51,75.51,0,0,1,119.72,35.41ZM174.08,1.77A86.83,86.83,0,0,1,260.8,87.63h-9a77.76,77.76,0,0,0-155.51,0h-9A86.84,86.84,0,0,1,174.08,1.77Z"/><path class="cls-1" d="M262.59,99.17H159.66V201.66H262.59v-13.2h0V99.17Zm-1.77,1.76V134.4a34.22,34.22,0,0,1-33.56-33.47Zm-35.3,0a35.94,35.94,0,0,0,35.3,35.21v15.69a51.66,51.66,0,0,1-51-50.9Zm-17.43,0a53.39,53.39,0,0,0,52.73,52.64v15.69a69.12,69.12,0,0,1-68.43-68.33Zm-17.43,0A70.84,70.84,0,0,0,260.82,171v15.69A86.54,86.54,0,0,1,175,100.93Zm-29.23,99V134.24a106.36,106.36,0,0,0,65,65.66Zm70.62,0a104.43,104.43,0,0,1-70.62-71.56V100.93h11.8a88.3,88.3,0,0,0,87.59,87.52V199.9Z"/><path class="cls-1" d="M85.46,201.79h64.43V98.86H85.46ZM148.13,181,129.06,200H117.2l30.93-30.92Zm0-14.36L114.71,200H102.83l45.3-45.3Zm0-14.37L100.34,200H88.48l59.65-59.65Zm0-28.71-60.9,60.88V172.55l60.9-60.9Zm-60.9,20.3,43.19-43.2H142.3L87.23,155.69Zm0-2.5V129.45l28.82-28.82h11.88Zm0-14.38V115.08l14.4-14.4,0-.05h12Zm0,60L148.13,126v11.86l-60.9,60.89ZM131.56,200l16.57-16.57V200Zm16.57-90.87-60.9,60.9V158.18l57.57-57.55h3.33Zm-48.95-8.53-12,12v-12Z"/></g></g></svg>