<svg xmlns="http://www.w3.org/2000/svg" viewBox="0 0 397.65 84.78"><g id="Livello_2" data-name="Livello 2"><g id="Livello_1-2" data-name="Livello 1"><path d="M22.12,48.38a1.15,1.15,0,0,1,1,1.18,1,1,0,0,1-1.1,1.1H1a1,1,0,0,1-1-1,1.2,1.2,0,0,1,1-1.24c3.93-1,4.21-4,4.35-7.44l1-28.53c0-2.62-1.31-4.55-4.2-4.9a1.1,1.1,0,0,1-.9-1.1,1.1,1.1,0,0,1,1.1-1.17h8.48c3.45,0,8.13-.41,14.68-.41,11,0,15.1,6.27,15.1,13.3,0,8.68-6.62,17.71-20.54,17.71h-4.9l-.2,6.07C14.89,46.52,17.37,47.83,22.12,48.38Zm9-27c0-10-7.85-13.24-13.92-13.24-.76,0-1.17.28-1.17,1L15.3,29.22a2,2,0,0,0,.9,1.86,9.71,9.71,0,0,0,4.55,1C27.43,32.12,31.15,27.64,31.15,21.37Z"/><path d="M59.2,17.64l-.55,7.52c0,.2.07.27.14.27s.14-.07.2-.2c1.93-4.28,6.83-8.9,11-8.9,2.35,0,2.69,4,2.69,8.83,0,1.79-.55,3.51-1.86,3.51A2.9,2.9,0,0,1,68.92,28c-1.17-.76-2.83-2.62-5.24-2.62-3.44,0-4.69,3.59-4.82,6.83L58.51,41c0,4.82,2.41,6.55,7.72,7.37a1.08,1.08,0,0,1,.9,1.11A1.1,1.1,0,0,1,66,50.66H45.21a1,1,0,0,1-1.1-1,1.21,1.21,0,0,1,1-1.24c4-1,4.2-3.92,4.34-7.51L50,27.36c0-2.62-1.59-3.72-5-3.72a1.64,1.64,0,0,1-.48-1.1A1.67,1.67,0,0,1,46,21a26.08,26.08,0,0,0,7.92-3A5.52,5.52,0,0,1,57,16.68,2.76,2.76,0,0,1,59.2,17.64Z"/><path d="M82.84,27c0-2.62-1.66-3.72-5.1-3.72a1.52,1.52,0,0,1,1-2.62,22.93,22.93,0,0,0,8-3.17,6.61,6.61,0,0,1,3.1-1.18,2.83,2.83,0,0,1,2.34,1L91.32,42c0,2.9.27,5.66,3.86,6.34a1,1,0,0,1,.89,1.11A1.1,1.1,0,0,1,95,50.66H77.81a1,1,0,0,1-1-1,1.17,1.17,0,0,1,.9-1.24c3.93-.82,4.48-3.51,4.62-7.51ZM93,4.83c0,3.58-2.21,5.58-5.72,5.58C83.53,10.41,82,8.48,82,5.58,82,2,84.15,0,87.66,0,91.38,0,93,1.93,93,4.83Z"/><path d="M103.44,24.19c-1.17-3.31-3.3-4.13-5.23-4.34a1.15,1.15,0,0,1-.9-1.24,1,1,0,0,1,1.1-1.1h18a1,1,0,0,1,1.1,1.17c0,.62-.27,1.17-1,1.17-2.14,0-3.17.9-3.17,2.48a6,6,0,0,0,.28,1.86l6.2,20.4h.34l8.14-20.4a4.25,4.25,0,0,0,.34-1.65c0-2.14-2.34-2.62-4.82-2.69a1.05,1.05,0,0,1-1-1.17,1.07,1.07,0,0,1,1.11-1.17h14.54a1.1,1.1,0,0,1,1.17,1.1,1.15,1.15,0,0,1-1.1,1.24c-2.69.14-3.93,1.38-5.17,4.34L122,50.31c-.21.56-1.8.9-4.55,1s-4.35-.35-4.55-.83Z"/><path d="M146,30.19c-2,0-4.76-1.72-4.76-3.65s2.28-4.35,4-5.72a19.14,19.14,0,0,1,12.13-4.28c7.3,0,12.82,3.86,12.82,13.24l-.41,11.71c0,3.38,1.44,5.38,3.65,5.38h.76c.69,0,1,.07,1,.76,0,1.86-4.69,3.44-7.72,3.44-4.34,0-6.41-2.69-6.41-6.2,0-.07-.07-.07-.21-.07s-.27,0-.27.07A11.41,11.41,0,0,1,150,51.35c-5.86,0-9.65-4.34-9.65-10.34a3.37,3.37,0,0,1,1.52-3.1c3.31-2.62,11.1-5.24,17.85-6.55.9-.14,1.38-.28,1.38-1.52,0-5.72-3.72-7.85-8-7.85-2,0-4.61.34-4.61,2.06C148.52,28.05,148,30.19,146,30.19Zm8.41,15.37c5.58,0,6.68-6,6.68-9.65V34.12a.33.33,0,0,0-.34-.35.53.53,0,0,0-.28.07c-3.17.83-11.3,3.45-11.3,5.58C149.14,42.73,151.14,45.56,154.38,45.56Z"/><path d="M182.63,23.09c0-.34-.14-.48-.55-.48h-4.62c-.55-.07-.76-.62-.76-1.38s.21-1.38.83-1.52A16.41,16.41,0,0,0,188.9,8.82c.14-.55,1-.82,1.72-.82.9,0,1.59.34,1.59,1l-.34,8.55c0,.27.06.48.48.48h9.78c.76.14,1,.82,1,1.58s-.41,1.8-1.17,1.93l-10.2,1-.55,15.57c0,2,.2,3.86,1.37,5.1a5.81,5.81,0,0,0,4.28,1.66,7.57,7.57,0,0,0,5.23-2.07,1.67,1.67,0,0,1,.63-.21,1,1,0,0,1,1,1.11,1.91,1.91,0,0,1-.28.89,13.71,13.71,0,0,1-11.85,6.76c-3.1,0-5.58-.9-7.31-2.83s-2.2-4.55-2.2-7.51Z"/><path d="M238.18,26.4a5,5,0,0,1-3.59,5c-4.2,1.58-15,2.82-19.22,2.82a.37.37,0,0,0-.42.42,14.19,14.19,0,0,0,1.24,3.86,11.83,11.83,0,0,0,10.69,5.93,14,14,0,0,0,10.2-4.35,1.18,1.18,0,0,1,.89-.48.93.93,0,0,1,1,.9,1.68,1.68,0,0,1-.07.55c-2.69,6.48-9.44,10.34-16.27,10.34-9.23-.07-15.51-6.69-15.51-15.58,0-10.27,7.93-19.37,18.75-19.37C233.29,16.47,238.18,21.09,238.18,26.4ZM214.4,28.6a15.67,15.67,0,0,0-.21,2.55c0,.28.21.42.56.42,3.1,0,14.95-2.14,14.95-3.31a7.62,7.62,0,0,0-7.37-7C217.92,21.3,215.23,24.54,214.4,28.6Z"/><path d="M271.12,4.48c8.82,0,11.58,2.55,11.58,8.69,0,1.44-.28,4.47-.28,5.16a1.33,1.33,0,0,1-1.37,1.52c-.69,0-1.18-.55-1.59-1.24-2.55-5.65-7.44-9-12.82-9-8.82,0-14.54,6.89-14.54,16.33,0,9.86,5.79,17.92,16.19,17.92,4.49,0,9.1-1.79,11.24-6a1.92,1.92,0,0,1,1.52-1.1,1.26,1.26,0,0,1,1.17,1.37c0,.62-.21,1.38-.28,2.35a9.77,9.77,0,0,1-3.1,6.27c-3.86,3.38-8.75,4.69-14.06,4.69-11.86,0-20.68-7.79-20.68-20.82C244.1,15.92,256,4.48,271.12,4.48Z"/><path d="M323.22,28.4l-.48,13.16c0,3.93.55,6.07,3.86,6.82a1.12,1.12,0,0,1,1,1.11,1.07,1.07,0,0,1-1.11,1.17H309.3a.93.93,0,0,1-1-1,1.14,1.14,0,0,1,.89-1.24c4.07-1,4.41-3.65,4.55-7.44l.34-9.37c0-3.93-.75-8.62-5.85-8.62-6,0-7.72,6-7.86,11.44l-.28,7.72c0,3.52.56,5.59,3.66,6.27.62.21,1,.56,1,1.11a1.06,1.06,0,0,1-1.1,1.17h-17a.94.94,0,0,1-1-1,1.15,1.15,0,0,1,1-1.24c3.86-1,4.28-3.92,4.42-7.44l1-29.64c0-2.62-1.65-3.79-5.1-3.79a1.52,1.52,0,0,1-.48-1.17A1.41,1.41,0,0,1,287.8,5a25.69,25.69,0,0,0,8.13-3.17A5.81,5.81,0,0,1,299.1.55a2.67,2.67,0,0,1,2.21,1l-.62,17.64a53.36,53.36,0,0,1-.49,6c0,.13.07.2.14.2a.15.15,0,0,0,.14-.13c2.34-5.38,7-8.76,12.34-8.76C320.67,16.47,323.22,22,323.22,28.4Z"/><path d="M362.5,26.4a5,5,0,0,1-3.58,5c-4.2,1.58-15,2.82-19.23,2.82a.37.37,0,0,0-.41.42,13.86,13.86,0,0,0,1.24,3.86,11.8,11.8,0,0,0,10.68,5.93,14,14,0,0,0,10.2-4.35,1.2,1.2,0,0,1,.9-.48.93.93,0,0,1,1,.9,1.68,1.68,0,0,1-.07.55c-2.68,6.48-9.44,10.34-16.26,10.34-9.24-.07-15.51-6.69-15.51-15.58,0-10.27,7.93-19.37,18.75-19.37C357.61,16.47,362.5,21.09,362.5,26.4Zm-23.77,2.2a15.67,15.67,0,0,0-.21,2.55c0,.28.21.42.55.42,3.1,0,15-2.14,15-3.31a7.62,7.62,0,0,0-7.38-7C342.24,21.3,339.55,24.54,338.73,28.6Z"/><path d="M395.86,7.24c-1.52,1.72-3.65,2.55-6.62,2.55-1.58,0-3.24-.35-4.68-.35-2.35,0-4.07,1.17-4.07,3.93a10.21,10.21,0,0,0,.83,3.52,1.51,1.51,0,0,0,1.58,1.17h10.48c.83,0,1.1.82,1.1,1.58,0,1-.48,1.86-1.17,1.93l-10.89,1L381.8,41c0,4.82,3,6.69,8,7.37a1.11,1.11,0,0,1,.9,1.11c0,.76-.41,1.17-1,1.17H368.43a1,1,0,0,1-1-1,1.22,1.22,0,0,1,1-1.24c3.79-1,4.27-3.92,4.41-7.44l.62-17.85a.43.43,0,0,0-.48-.48h-4.76c-.48,0-.82-.69-.82-1.45s.27-1.38.89-1.52c.83-.27,4.62-1.24,5.38-1.44A17.4,17.4,0,0,1,381.66,5a28.25,28.25,0,0,1,16-4.48C397.65,3.31,397.17,5.65,395.86,7.24Z"/><path d="M141.26,83.18a10.23,10.23,0,0,1-5.52,1.6c-6.05,0-10.61-4.11-10.61-10.19,0-5.86,4.79-10.19,10.64-10.19a9.7,9.7,0,0,1,4.93,1.35l-1,1.6a8.44,8.44,0,0,0-4-1,8.07,8.07,0,0,0-8.39,8.28c0,5,3.38,8.28,8.42,8.28a8.08,8.08,0,0,0,4.39-1.3Z"/><path d="M156.35,64.74h1.89l6.87,19.7h-2.34L161.28,80h-8.67l-1.69,4.47h-2.17Zm-3,13.31h7.35l-3.44-10.39h0Z"/><path d="M177.92,66.65V84.44h-2.09V66.65h-5.09V64.74H183v1.91Z"/><path d="M196.25,64.74h1.88L205,84.44h-2.34L201.17,80H192.5l-1.69,4.47h-2.17Zm-3,13.31h7.34l-3.43-10.39h0Z"/><path d="M227.8,84.44,216.06,68.62V84.44h-2V64.74h1.55l11.77,15.85V64.74h2v19.7Z"/><path d="M240.81,84.44V64.74h2.09v19.7Z"/><path d="M259.59,64.74h1.89l6.87,19.7H266L264.52,80h-8.67l-1.69,4.47H252Zm-3,13.31h7.35l-3.44-10.39h0Z"/></g></g></svg>