<svg width="454" height="384" viewBox="0 0 454 384" fill="none" xmlns="http://www.w3.org/2000/svg">
<path d="M293.472 88.3842V86.6638C293.472 63.781 283.885 41.8355 266.819 25.6549C249.753 9.47426 226.607 0.384155 202.472 0.384155C178.337 0.384155 155.191 9.47426 138.125 25.6549C121.059 41.8355 111.472 63.781 111.472 86.6638V88.3842H293.472Z" fill="#F4EA6B"/>
<path fill-rule="evenodd" clip-rule="evenodd" d="M226.425 0C213.139 0 199.982 2.61702 187.706 7.70165C175.431 12.7864 164.277 20.239 154.882 29.6342C145.487 39.0294 138.034 50.1831 132.95 62.4584C128.762 72.5693 126.248 83.2781 125.491 94.165C125.329 96.4956 125.248 98.8344 125.248 101.177V102.658H327.603V101.177C327.603 98.8344 327.521 96.4956 327.359 94.165C326.603 83.2781 324.089 72.5693 319.901 62.4584C314.816 50.183 307.364 39.0294 297.968 29.6342C288.573 20.239 277.42 12.7864 265.144 7.70165C252.869 2.61702 239.712 0 226.425 0ZM191.484 16.8213C202.562 12.2327 214.435 9.87096 226.425 9.87096C238.416 9.87096 250.289 12.2327 261.367 16.8213C272.445 21.4099 282.51 28.1354 290.989 36.614C299.467 45.0926 306.193 55.1581 310.781 66.2359C314.296 74.7212 316.504 83.6731 317.345 92.7869H310.404C309.584 84.582 307.565 76.5261 304.398 68.8801C300.156 58.6406 293.94 49.3368 286.103 41.4999C278.266 33.6629 268.962 27.4463 258.723 23.205C248.483 18.9637 237.508 16.7807 226.425 16.7807C215.342 16.7807 204.368 18.9637 194.128 23.205C183.889 27.4463 174.585 33.6629 166.748 41.4999C158.911 49.3368 152.694 58.6406 148.453 68.8801C145.286 76.5261 143.267 84.582 142.447 92.787H135.505C136.346 83.6731 138.555 74.7212 142.069 66.2359C146.658 55.1581 153.383 45.0926 161.862 36.614C170.341 28.1354 180.406 21.4099 191.484 16.8213ZM197.906 32.3246C205.424 29.2102 213.392 27.3527 221.49 26.8152V85.3136L179.476 43.2996C185.047 38.7802 191.253 35.0802 197.906 32.3246ZM231.361 85.3136V26.8152C239.459 27.3527 247.426 29.2102 254.945 32.3246C261.598 35.0802 267.803 38.7802 273.375 43.2996L231.361 85.3136ZM157.573 72.6575C161.044 64.2763 166.014 56.605 172.234 50.0172L215.004 92.7869L152.373 92.787C153.156 85.8809 154.902 79.1042 157.573 72.6575ZM300.477 92.7869H237.847L280.617 50.0172C286.836 56.605 291.806 64.2763 295.278 72.6575C297.948 79.1042 299.695 85.8809 300.477 92.7869Z" fill="black"/>
<path d="M339.472 128.384H226.472V240.384H339.472V128.384Z" fill="#9B80B9"/>
<path d="M185.472 128.384H111.472V240.384H185.472V128.384Z" fill="#ED7568"/>
<path fill-rule="evenodd" clip-rule="evenodd" d="M200.267 110.548H125.248V229H200.267V110.548ZM137.163 120.419H159.233L190.396 151.583V173.652L137.163 120.419ZM190.396 137.623L173.192 120.419H190.396V137.623ZM135.119 154.404V132.335L190.396 187.612V209.681L135.119 154.404ZM135.119 190.433V168.364L185.884 219.129H163.815L135.119 190.433ZM135.119 219.129V204.393L149.855 219.129H135.119Z" fill="black"/>
<path fill-rule="evenodd" clip-rule="evenodd" d="M327.641 110.548H209.189V229H327.641V110.548ZM317.77 218.805C265.311 214.741 223.448 172.878 219.384 120.419H233.252C237.248 165.243 272.947 200.941 317.77 204.937V218.805ZM317.77 195.022C278.404 191.091 247.098 159.785 243.167 120.419H257.071C260.884 152.147 286.042 177.305 317.77 181.118V195.022ZM317.77 171.164C291.503 167.471 270.718 146.686 267.025 120.419H281.025C284.466 139.043 299.146 153.723 317.77 157.164V171.164ZM317.77 147.076C304.611 143.938 294.251 133.578 291.113 120.419H317.77V147.076ZM219.06 187.12V159.131C230.835 185.865 252.324 207.354 279.058 219.129H251.069C238.637 210.396 227.793 199.552 219.06 187.12ZM219.06 219.129V203.221C223.932 208.937 229.253 214.257 234.968 219.129H219.06Z" fill="black"/>
<path d="M425.807 271.949C425.807 265.185 427.288 260.35 430.251 257.444C433.213 254.481 437.21 253 442.241 253C444.868 253 446.964 253.391 448.529 254.174C450.094 254.9 451.212 255.823 451.883 256.94C452.554 258.058 452.889 259.204 452.889 260.378C452.889 261.831 452.442 263.117 451.547 264.235C450.653 265.353 449.368 265.94 447.691 265.996C446.07 266.052 444.812 265.632 443.918 264.738C443.023 263.788 442.576 262.614 442.576 261.217C442.576 260.937 442.576 260.658 442.576 260.378C442.632 260.099 442.688 259.819 442.744 259.54C442.464 259.26 442.129 259.092 441.738 259.037C441.402 258.925 441.095 258.869 440.815 258.869C439.921 258.869 439.222 259.148 438.719 259.707C438.216 260.21 437.881 260.853 437.713 261.636C437.545 262.418 437.462 263.229 437.462 264.067V274.38H446.852V280.836L437.545 281.088L437.629 302.636C437.629 303.418 437.601 304.564 437.545 306.073C437.49 307.527 437.406 308.896 437.294 310.182C438.244 310.07 439.306 310.014 440.48 310.014C441.71 309.958 442.604 309.93 443.163 309.93V316.302H420.777V310.852C422.342 310.852 423.46 310.545 424.13 309.93C424.857 309.315 425.304 308.449 425.472 307.331C425.695 306.157 425.807 304.844 425.807 303.39V281.255L419.687 281.339V274.38H425.807V271.949Z" fill="black"/>
<path d="M397.041 317.644C392.961 317.644 389.356 316.75 386.225 314.961C383.095 313.116 380.664 310.545 378.931 307.247C377.198 303.893 376.332 299.953 376.332 295.425C376.332 291.512 377.198 287.851 378.931 284.441C380.664 281.032 383.095 278.293 386.225 276.225C389.412 274.101 393.101 273.039 397.293 273.039C399.641 273.039 401.932 273.374 404.168 274.045C406.404 274.66 408.416 275.75 410.205 277.315C412.05 278.88 413.503 281.004 414.565 283.687C415.683 286.37 416.214 289.724 416.158 293.748L388.657 294.251C388.657 297.27 389.02 299.981 389.747 302.384C390.53 304.788 391.787 306.688 393.52 308.086C395.253 309.483 397.572 310.182 400.479 310.182C401.597 310.182 402.855 309.986 404.252 309.595C405.705 309.204 407.159 308.561 408.612 307.666C410.121 306.716 411.519 305.458 412.804 303.893L416.577 307.415C414.565 310.266 412.413 312.446 410.121 313.955C407.829 315.408 405.538 316.386 403.246 316.889C401.01 317.392 398.942 317.644 397.041 317.644ZM389.16 288.382H404.587C404.532 286.034 404.196 284.19 403.581 282.848C403.022 281.451 402.24 280.445 401.234 279.83C400.228 279.215 399.054 278.908 397.712 278.908C395.253 278.908 393.324 279.802 391.927 281.591C390.53 283.324 389.607 285.587 389.16 288.382Z" fill="black"/>
<path d="M351.758 310.852C353.323 310.852 354.441 310.545 355.111 309.93C355.838 309.315 356.285 308.449 356.453 307.331C356.676 306.157 356.788 304.844 356.788 303.39L356.704 291.484C356.704 287.851 356.145 285.168 355.027 283.435C353.965 281.647 352.261 280.752 349.913 280.752C348.516 280.752 347.118 281.06 345.721 281.675C344.379 282.289 343.233 283.016 342.283 283.855V302.803C342.283 303.586 342.255 304.704 342.199 306.157C342.143 307.555 342.06 308.896 341.948 310.182C342.898 310.07 343.904 310.014 344.966 310.014C346.028 309.958 346.839 309.93 347.398 309.93V316.302H325.43V310.852C326.995 310.852 328.113 310.545 328.784 309.93C329.511 309.315 329.958 308.449 330.126 307.331C330.293 306.157 330.377 304.844 330.377 303.39V268.93C330.377 267.924 330.405 266.778 330.461 265.493C330.517 264.151 330.601 262.865 330.713 261.636C329.818 261.692 328.756 261.748 327.527 261.803C326.353 261.803 325.458 261.831 324.843 261.887V255.515C327.471 255.515 329.651 255.375 331.383 255.096C333.172 254.816 334.569 254.481 335.576 254.09C336.638 253.698 337.364 253.335 337.756 253H342.283V277.734C343.401 276.84 344.687 276.057 346.14 275.386C347.593 274.66 349.075 274.101 350.584 273.709C352.093 273.262 353.406 273.039 354.524 273.039C359.667 273.039 363.3 274.52 365.424 277.482C367.548 280.389 368.638 285.084 368.694 291.568V302.803C368.694 303.586 368.666 304.704 368.61 306.157C368.554 307.555 368.471 308.896 368.359 310.182C369.253 310.07 370.231 310.014 371.293 310.014C372.355 309.958 373.194 309.93 373.809 309.93V316.302H351.758V310.852Z" fill="black"/>
<path d="M314.742 276.392C314.016 271.753 312.45 268.259 310.047 265.912C307.699 263.564 304.569 262.362 300.656 262.307C297.75 262.307 295.206 262.977 293.026 264.319C290.847 265.66 289.03 267.449 287.577 269.685C286.179 271.921 285.117 274.464 284.39 277.315C283.72 280.165 283.384 283.1 283.384 286.118C283.384 290.925 284.055 295.202 285.397 298.947C286.794 302.636 288.806 305.542 291.433 307.666C294.061 309.79 297.247 310.852 300.992 310.852C304.513 310.852 308.007 309.958 311.472 308.169C314.938 306.325 317.844 303.782 320.192 300.54L324.217 304.229C321.478 307.974 318.599 310.825 315.581 312.781C312.562 314.681 309.6 315.967 306.693 316.638C303.842 317.308 301.271 317.644 298.979 317.644C294.675 317.644 290.763 316.889 287.241 315.38C283.72 313.815 280.673 311.691 278.102 309.008C275.587 306.269 273.63 303.111 272.233 299.533C270.892 295.9 270.221 291.987 270.221 287.795C270.221 283.994 270.836 280.221 272.065 276.476C273.295 272.731 275.112 269.349 277.515 266.331C279.975 263.257 283.049 260.825 286.738 259.037C290.427 257.192 294.703 256.27 299.566 256.27C301.746 256.27 304.122 256.633 306.693 257.36C309.32 258.03 311.78 259.037 314.071 260.378L313.736 256.857H320.192V276.392H314.742Z" fill="black"/>
<path d="M247.326 317.644C243.301 317.644 239.724 316.75 236.594 314.961C233.464 313.116 231.032 310.545 229.299 307.247C227.567 303.893 226.7 299.953 226.7 295.425C226.7 291.512 227.567 287.851 229.299 284.441C231.032 281.032 233.464 278.293 236.594 276.225C239.78 274.101 243.469 273.039 247.661 273.039C250.009 273.039 252.273 273.374 254.453 274.045C256.633 274.715 258.589 275.833 260.322 277.399C262.055 278.964 263.424 281.032 264.43 283.603C265.492 286.174 265.995 289.304 265.939 292.994L237.768 293.497C237.768 296.962 238.159 300.037 238.942 302.72C239.78 305.347 241.122 307.443 242.966 309.008C244.811 310.517 247.242 311.272 250.261 311.272C251.602 311.272 253.027 311.048 254.537 310.601C256.102 310.098 257.639 309.371 259.148 308.421C260.657 307.415 261.999 306.185 263.173 304.732L266.359 307.666C264.514 310.349 262.474 312.418 260.238 313.871C258.002 315.324 255.766 316.302 253.531 316.805C251.295 317.364 249.226 317.644 247.326 317.644ZM238.187 288.466H255.627C255.571 286.23 255.235 284.358 254.62 282.848C254.062 281.283 253.223 280.109 252.105 279.327C250.987 278.488 249.618 278.069 247.997 278.069C245.258 278.069 243.05 278.992 241.373 280.836C239.752 282.625 238.69 285.168 238.187 288.466Z" fill="black"/>
<path d="M211.416 317.644C209.851 317.644 208.313 317.448 206.804 317.057C205.351 316.666 204.009 315.939 202.78 314.877C201.606 313.815 200.656 312.25 199.929 310.182C199.202 308.058 198.839 305.263 198.839 301.797L199.007 280.165L193.054 280.249V274.38C194.731 274.324 196.352 273.765 197.917 272.703C199.482 271.585 200.851 270.132 202.025 268.343C203.199 266.555 203.982 264.654 204.373 262.642H209.487L209.403 274.38H221.226V279.746L209.403 279.998L209.32 301.546C209.32 303.223 209.459 304.788 209.739 306.241C210.074 307.638 210.633 308.756 211.416 309.595C212.254 310.433 213.372 310.852 214.77 310.852C215.832 310.852 217.033 310.517 218.375 309.846C219.772 309.176 221.17 307.834 222.567 305.822L226.005 308.924C224.607 311.048 223.154 312.697 221.645 313.871C220.191 315.045 218.766 315.911 217.369 316.47C216.027 317.029 214.825 317.364 213.763 317.476C212.701 317.588 211.919 317.644 211.416 317.644Z" fill="black"/>
<path d="M177.492 316.302C177.324 315.464 177.213 314.765 177.157 314.206C177.157 313.591 177.129 312.893 177.073 312.11C175.172 314.011 173.132 315.408 170.952 316.302C168.828 317.197 166.62 317.644 164.328 317.644C160.528 317.644 157.593 316.61 155.525 314.542C153.513 312.473 152.506 309.93 152.506 306.912C152.506 304.229 153.233 301.965 154.686 300.12C156.14 298.22 158.04 296.683 160.388 295.509C162.735 294.279 165.335 293.357 168.185 292.742C171.036 292.071 173.859 291.708 176.654 291.652V287.041C176.654 285.42 176.458 283.938 176.067 282.597C175.731 281.199 175.089 280.109 174.138 279.327C173.188 278.488 171.791 278.069 169.946 278.069C168.716 278.125 167.459 278.405 166.173 278.908C164.943 279.355 163.965 280.082 163.239 281.088C163.686 281.591 163.965 282.15 164.077 282.765C164.189 283.324 164.245 283.827 164.245 284.274C164.245 285.28 163.853 286.342 163.071 287.46C162.288 288.522 161.031 289.025 159.298 288.969C157.789 288.913 156.615 288.382 155.776 287.376C154.994 286.37 154.603 285.168 154.603 283.771C154.603 281.647 155.357 279.802 156.866 278.237C158.431 276.616 160.528 275.358 163.155 274.464C165.782 273.514 168.716 273.039 171.958 273.039C176.765 273.039 180.455 274.296 183.026 276.812C185.597 279.327 186.855 283.351 186.799 288.885C186.799 290.842 186.799 292.63 186.799 294.251C186.799 295.816 186.771 297.409 186.715 299.03C186.715 300.595 186.715 302.356 186.715 304.313C186.715 305.151 186.687 306.213 186.631 307.499C186.575 308.728 186.491 309.958 186.38 311.188C187.386 311.076 188.392 311.02 189.398 311.02C190.46 310.964 191.326 310.908 191.997 310.852V316.302H177.492ZM176.57 296.599C174.893 296.711 173.244 296.99 171.623 297.437C170.002 297.829 168.549 298.388 167.263 299.114C165.977 299.841 164.943 300.763 164.161 301.881C163.434 302.943 163.099 304.173 163.155 305.57C163.211 307.303 163.77 308.589 164.832 309.427C165.894 310.21 167.123 310.601 168.521 310.601C170.142 310.601 171.595 310.266 172.881 309.595C174.222 308.924 175.452 308.03 176.57 306.912C176.57 306.353 176.57 305.766 176.57 305.151C176.57 304.536 176.57 303.921 176.57 303.306C176.57 302.524 176.57 301.546 176.57 300.372C176.57 299.198 176.57 297.94 176.57 296.599Z" fill="black"/>
<path d="M127.061 316.554L114.233 288.047C113.562 286.426 113.059 285.112 112.724 284.106C112.388 283.1 112.137 282.261 111.969 281.591C111.857 280.92 111.745 280.249 111.634 279.578L108.364 279.746V274.38H126.558V278.824C125.216 278.824 124.322 279.187 123.875 279.914C123.484 280.585 123.372 281.507 123.539 282.681C123.763 283.799 124.126 285 124.629 286.286L129.66 298.36C130.107 299.366 130.554 300.428 131.002 301.546C131.449 302.608 131.868 303.698 132.259 304.816H132.343C132.734 303.754 133.126 302.692 133.517 301.63C133.964 300.512 134.355 299.394 134.691 298.276L139.302 285.364C139.805 283.966 140.28 282.82 140.728 281.926C141.175 281.032 141.594 280.221 141.985 279.495L136.787 279.746V274.38H151.795V278.824C150.509 278.936 149.391 279.551 148.441 280.668C147.491 281.73 146.653 283.044 145.926 284.609C145.199 286.118 144.529 287.683 143.914 289.304L133.098 316.554H127.061Z" fill="black"/>
<path d="M87.3489 311.859C88.9699 311.859 90.1158 311.523 90.7865 310.852C91.4573 310.126 91.8765 309.12 92.0442 307.834C92.2119 306.548 92.2957 305.095 92.2957 303.474V287.795C92.2957 286.845 92.3237 285.811 92.3796 284.693C92.4355 283.519 92.5193 282.317 92.6311 281.088C91.6809 281.144 90.6468 281.199 89.5289 281.255C88.4109 281.311 87.4886 281.367 86.762 281.423V275.973C89.2773 275.973 91.3455 275.861 92.9665 275.638C94.6434 275.358 95.929 275.023 96.8233 274.632C97.7736 274.24 98.4443 273.877 98.8356 273.542H102.608V304.313C102.608 305.207 102.58 306.297 102.525 307.583C102.525 308.812 102.441 310.014 102.273 311.188C103.167 311.076 104.118 311.02 105.124 311.02C106.186 310.964 107.052 310.936 107.723 310.936V316.302H87.3489V311.859ZM96.991 266.331C95.37 266.331 94.0006 265.744 92.8826 264.57C91.7647 263.341 91.2058 261.859 91.2058 260.127C91.2058 258.394 91.7647 256.913 92.8826 255.683C94.0565 254.453 95.4259 253.838 96.991 253.838C98.612 253.838 99.9532 254.453 101.015 255.683C102.133 256.913 102.692 258.394 102.692 260.127C102.692 261.859 102.161 263.341 101.099 264.57C100.037 265.744 98.6679 266.331 96.991 266.331Z" fill="black"/>
<path d="M50.133 311.859C51.754 311.859 52.8999 311.523 53.5706 310.852C54.2414 310.126 54.6606 309.12 54.8283 307.834C54.996 306.548 55.0798 305.095 55.0798 303.474V287.711C55.0798 286.705 55.1078 285.643 55.1637 284.525C55.2196 283.407 55.3034 282.261 55.4152 281.088C54.465 281.144 53.4309 281.199 52.3129 281.255C51.195 281.255 50.2727 281.283 49.5461 281.339V275.973H52.6483C54.8842 275.973 56.7567 275.722 58.2659 275.219C59.7751 274.66 60.8371 274.101 61.452 273.542H64.9735C65.0853 274.212 65.1691 275.274 65.225 276.728C65.2809 278.181 65.3088 279.634 65.3088 281.088C66.5945 279.411 67.936 277.985 69.3334 276.812C70.7308 275.582 72.1561 274.66 73.6094 274.045C75.1186 273.374 76.6558 273.039 78.2209 273.039C80.0096 273.039 81.5747 273.542 82.9162 274.548C84.3136 275.554 85.0123 277.175 85.0123 279.411C85.0123 280.137 84.8167 280.92 84.4254 281.758C84.09 282.597 83.531 283.296 82.7485 283.855C82.0218 284.414 81.0157 284.693 79.7301 284.693C78.5563 284.693 77.4383 284.33 76.3763 283.603C75.3702 282.82 74.8392 281.591 74.7833 279.914C73.6094 279.858 72.3797 280.277 71.0941 281.172C69.8644 282.066 68.7465 283.156 67.7403 284.441C66.7342 285.727 65.9516 287.041 65.3927 288.382L65.4765 304.313C65.4765 305.207 65.4486 306.297 65.3927 307.583C65.3368 308.812 65.2529 310.014 65.1411 311.188C66.0355 311.076 66.9857 311.02 67.9919 311.02C68.998 310.964 69.8364 310.936 70.5072 310.936V316.302H50.133V311.859Z" fill="black"/>
<path d="M0 311.691C1.5651 311.635 2.76687 311.383 3.60531 310.936C4.44376 310.433 5.03067 309.595 5.36605 308.421C5.70143 307.191 5.86912 305.514 5.86912 303.39V269.936C5.86912 268.539 5.89706 267.197 5.95296 265.912C6.06475 264.626 6.1486 263.62 6.20449 262.893C5.25426 262.949 4.16428 263.005 2.93456 263.061C1.70484 263.061 0.726648 263.089 0 263.145V257.611C3.63326 257.555 7.29447 257.527 10.9837 257.527C14.6728 257.527 18.362 257.499 22.0511 257.444C27.1377 257.388 31.5256 258.03 35.2147 259.372C38.9039 260.658 41.7266 262.642 43.683 265.325C45.6394 267.952 46.6176 271.362 46.6176 275.554C46.6176 277.79 46.1424 280.026 45.1922 282.261C44.2979 284.441 42.8446 286.482 40.8323 288.382C38.8759 290.227 36.2767 291.736 33.0348 292.91C29.8487 294.084 25.9918 294.726 21.4642 294.838C20.5699 294.838 19.7035 294.838 18.865 294.838C18.0266 294.838 17.2161 294.81 16.4335 294.754V303.726C16.4335 305.291 16.4056 306.716 16.3497 308.002C16.2938 309.287 16.21 310.294 16.0982 311.02C16.8248 310.964 17.6353 310.936 18.5297 310.936C19.424 310.88 20.3183 310.852 21.2127 310.852C22.1629 310.797 22.8896 310.769 23.3926 310.769V316.302H0V311.691ZM16.4335 289.472C17.1602 289.528 17.8589 289.584 18.5297 289.64C19.2004 289.696 19.9271 289.724 20.7096 289.724C23.8398 289.724 26.4669 289.165 28.591 288.047C30.771 286.929 32.4199 285.336 33.5378 283.268C34.6557 281.144 35.2147 278.572 35.2147 275.554C35.2147 272.815 34.8234 270.579 34.0409 268.846C33.2583 267.114 32.2243 265.8 30.9386 264.906C29.653 263.955 28.2277 263.313 26.6626 262.977C25.0975 262.642 23.5324 262.474 21.9673 262.474C20.514 262.474 19.3681 262.698 18.5297 263.145C17.7471 263.592 17.1882 264.403 16.8528 265.576C16.5733 266.694 16.4335 268.232 16.4335 270.188V289.472Z" fill="black"/>
<path d="M94.4722 368.5C92.6317 369.736 90.494 370.39 88.3122 370.384C81.5608 370.384 76.4722 365.544 76.4722 358.384C76.4722 351.483 81.8175 346.384 88.3457 346.384C90.2819 346.38 92.183 346.93 93.8472 347.974L92.7313 349.858C91.3585 349.082 89.8249 348.678 88.2676 348.681C87.0353 348.628 85.806 348.844 84.6558 349.314C83.5057 349.784 82.4593 350.498 81.5815 351.412C80.7037 352.326 80.0132 353.421 79.5527 354.629C79.0923 355.836 78.8718 357.13 78.9049 358.431C78.9049 364.319 82.6768 368.182 88.3011 368.182C90.0398 368.181 91.741 367.649 93.2 366.651L94.4722 368.5Z" fill="black"/>
<path d="M134.834 346.384H136.913L144.472 370.384H141.898L140.258 364.938H130.719L128.86 370.384H126.472L134.834 346.384ZM131.533 362.599H139.62L135.835 349.942L131.533 362.599Z" fill="black"/>
<path d="M184.671 348.711V370.384H182.285V348.711H176.472V346.384H190.472V348.711H184.671Z" fill="black"/>
<path d="M231.31 346.384H233.494L241.472 370.384H238.755L237.024 364.938H226.955L224.992 370.384H222.472L231.31 346.384ZM227.826 362.599H236.351L232.367 349.942L227.826 362.599Z" fill="black"/>
<path d="M288.719 370.384L275.691 351.111V370.384H273.472V346.384H275.192L288.253 365.694V346.384H290.472V370.384H288.719Z" fill="black"/>
<path d="M322.472 370.384V346.384H325.472V370.384H322.472Z" fill="black"/>
<path d="M365.828 346.384H367.909L375.472 370.384H372.885L371.245 364.938H361.7L359.839 370.384H357.472L365.828 346.384ZM362.525 362.599H370.617L366.83 349.942L362.525 362.599Z" fill="black"/>
</svg>
