<svg xmlns="http://www.w3.org/2000/svg" viewBox="0 0 192.53 173.13"><defs><style>.cls-1{fill:#fff;}.cls-2{fill:#ffef73;}.cls-3{fill:#a88ec2;}.cls-4{fill:#ee7972;}</style></defs><g id="Livello_2" data-name="Livello 2"><g id="Livello_1-2" data-name="Livello 1"><path class="cls-1" d="M10.71,155.51a.55.55,0,0,1,.5.57.49.49,0,0,1-.53.53H.5a.47.47,0,0,1-.5-.5.58.58,0,0,1,.47-.6c1.9-.5,2-1.94,2.1-3.6L3,138.09a2.17,2.17,0,0,0-2-2.37.56.56,0,0,1,.1-1.1H5.21c1.67,0,3.93-.2,7.1-.2,5.34,0,7.31,3,7.31,6.44,0,4.2-3.2,8.58-9.94,8.58H7.31l-.1,2.93C7.21,154.61,8.41,155.24,10.71,155.51Zm4.37-13.08c0-4.84-3.8-6.41-6.74-6.41-.36,0-.56.13-.56.47l-.37,9.74a1,1,0,0,0,.43.9,4.8,4.8,0,0,0,2.2.5C13.28,147.63,15.08,145.47,15.08,142.43Z"/><path class="cls-1" d="M28.66,140.63l-.26,3.63c0,.1,0,.14.06.14s.07,0,.1-.1c.94-2.07,3.31-4.31,5.31-4.31,1.13,0,1.3,1.94,1.3,4.27,0,.87-.27,1.71-.9,1.71a1.43,1.43,0,0,1-.9-.34,4.56,4.56,0,0,0-2.54-1.27c-1.67,0-2.27,1.74-2.33,3.31l-.17,4.27c0,2.33,1.17,3.17,3.74,3.57a.51.51,0,0,1,.43.53.54.54,0,0,1-.53.57H21.89a.5.5,0,0,1-.54-.5.59.59,0,0,1,.51-.6c1.93-.47,2-1.9,2.1-3.64l.23-6.54c0-1.27-.77-1.8-2.44-1.8a.78.78,0,0,1-.23-.53.8.8,0,0,1,.74-.77,12.69,12.69,0,0,0,3.83-1.47,2.71,2.71,0,0,1,1.5-.6A1.29,1.29,0,0,1,28.66,140.63Z"/><path class="cls-1" d="M40.11,145.16c0-1.26-.8-1.8-2.47-1.8a.7.7,0,0,1-.24-.53.73.73,0,0,1,.71-.74A10.94,10.94,0,0,0,42,140.56a3.15,3.15,0,0,1,1.5-.57,1.38,1.38,0,0,1,1.13.47l-.4,12c0,1.4.14,2.74,1.87,3.07a.48.48,0,0,1,.43.53.53.53,0,0,1-.53.57H37.67a.47.47,0,0,1-.47-.5.57.57,0,0,1,.44-.6c1.9-.4,2.17-1.7,2.23-3.64ZM45,134.42a2.51,2.51,0,0,1-2.77,2.7c-1.8,0-2.53-.93-2.53-2.33a2.48,2.48,0,0,1,2.73-2.71C44.25,132.08,45,133,45,134.42Z"/><path class="cls-1" d="M50.08,143.8a2.8,2.8,0,0,0-2.53-2.11.55.55,0,0,1-.44-.6.51.51,0,0,1,.54-.53h8.71a.5.5,0,0,1,.53.57c0,.3-.13.56-.5.56-1,0-1.53.44-1.53,1.2a3,3,0,0,0,.13.91l3,9.87h.17l3.94-9.87a2.05,2.05,0,0,0,.16-.8c0-1-1.13-1.27-2.33-1.31a.5.5,0,0,1-.5-.56.52.52,0,0,1,.53-.57h7a.53.53,0,0,1,.57.53.56.56,0,0,1-.53.6c-1.3.07-1.91.67-2.51,2.11l-5.47,12.64c-.1.27-.87.44-2.2.47s-2.1-.17-2.2-.4Z"/><path class="cls-1" d="M70.67,146.7c-1,0-2.3-.83-2.3-1.77s1.1-2.1,1.93-2.77a9.3,9.3,0,0,1,5.88-2.07c3.53,0,6.2,1.87,6.2,6.41l-.2,5.67c0,1.64.71,2.61,1.77,2.61h.37c.33,0,.5,0,.5.36,0,.9-2.27,1.67-3.74,1.67a2.81,2.81,0,0,1-3.1-3s0,0-.1,0-.13,0-.13,0a5.52,5.52,0,0,1-5.11,3.13c-2.84,0-4.67-2.1-4.67-5a1.62,1.62,0,0,1,.73-1.5c1.6-1.27,5.38-2.54,8.65-3.17.43-.07.66-.14.66-.74,0-2.77-1.8-3.8-3.87-3.8-1,0-2.23.16-2.23,1C71.91,145.67,71.64,146.7,70.67,146.7Zm4.07,7.44c2.71,0,3.24-2.9,3.24-4.67v-.87a.16.16,0,0,0-.17-.17.22.22,0,0,0-.13,0c-1.54.4-5.47,1.67-5.47,2.7A2.69,2.69,0,0,0,74.74,154.14Z"/><path class="cls-1" d="M88.42,143.26c0-.17-.06-.23-.26-.23H85.92c-.27,0-.37-.3-.37-.67s.1-.67.4-.73a8,8,0,0,0,5.51-5.28c.07-.26.47-.4.83-.4s.77.17.77.5l-.17,4.14c0,.14,0,.24.24.24h4.74c.36.06.5.4.5.76s-.2.87-.57.94l-4.94.5-.27,7.54a3.48,3.48,0,0,0,.67,2.47,2.84,2.84,0,0,0,2.07.8,3.71,3.71,0,0,0,2.54-1,.81.81,0,0,1,.3-.1.47.47,0,0,1,.46.53.94.94,0,0,1-.13.44A6.66,6.66,0,0,1,92.76,157a4.54,4.54,0,0,1-3.54-1.37A5.37,5.37,0,0,1,88.16,152Z"/><path class="cls-1" d="M115.32,144.86a2.42,2.42,0,0,1-1.74,2.44,38.81,38.81,0,0,1-9.31,1.37.18.18,0,0,0-.2.2,6.72,6.72,0,0,0,.6,1.87,5.72,5.72,0,0,0,5.17,2.87,6.78,6.78,0,0,0,4.94-2.1.56.56,0,0,1,.44-.24.45.45,0,0,1,.46.44.9.9,0,0,1,0,.26,8.49,8.49,0,0,1-7.87,5,7.27,7.27,0,0,1-7.51-7.54,9.21,9.21,0,0,1,9.07-9.38C113,140.06,115.32,142.29,115.32,144.86Zm-11.52,1.07a8.64,8.64,0,0,0-.1,1.24c0,.13.1.2.27.2,1.5,0,7.24-1,7.24-1.61a3.69,3.69,0,0,0-3.57-3.37C105.51,142.39,104.2,144,103.8,145.93Z"/><path class="cls-1" d="M131.27,134.25c4.27,0,5.6,1.24,5.6,4.21,0,.7-.13,2.17-.13,2.5a.65.65,0,0,1-.67.73c-.33,0-.57-.26-.77-.6a6.86,6.86,0,0,0-6.2-4.33c-4.27,0-7,3.33-7,7.9,0,4.78,2.8,8.68,7.84,8.68a5.89,5.89,0,0,0,5.44-2.9.92.92,0,0,1,.73-.54.61.61,0,0,1,.57.67c0,.3-.1.67-.13,1.14a4.72,4.72,0,0,1-1.51,3,10,10,0,0,1-6.8,2.27c-5.74,0-10-3.77-10-10.08A12.72,12.72,0,0,1,131.27,134.25Z"/><path class="cls-1" d="M156.49,145.83l-.23,6.38c0,1.9.27,2.93,1.87,3.3a.53.53,0,0,1,.46.53.52.52,0,0,1-.53.57h-8.31a.45.45,0,0,1-.47-.5.56.56,0,0,1,.44-.6c2-.47,2.13-1.77,2.2-3.6l.17-4.54c0-1.9-.37-4.17-2.84-4.17-2.9,0-3.74,2.9-3.8,5.53l-.14,3.74c0,1.7.27,2.71,1.77,3,.3.1.47.27.47.53a.52.52,0,0,1-.54.57h-8.2a.46.46,0,0,1-.51-.5.56.56,0,0,1,.47-.6c1.87-.47,2.07-1.9,2.14-3.6l.47-14.35c0-1.27-.81-1.84-2.47-1.84a.72.72,0,0,1-.24-.57.68.68,0,0,1,.67-.66,12.71,12.71,0,0,0,3.94-1.54,2.79,2.79,0,0,1,1.53-.6,1.27,1.27,0,0,1,1.07.47l-.3,8.54a27.18,27.18,0,0,1-.23,2.9c0,.07,0,.1.06.1a.07.07,0,0,0,.07-.06,6.58,6.58,0,0,1,6-4.24C155.26,140.06,156.49,142.73,156.49,145.83Z"/><path class="cls-1" d="M175.51,144.86a2.42,2.42,0,0,1-1.73,2.44,39,39,0,0,1-9.32,1.37.18.18,0,0,0-.2.2,6.73,6.73,0,0,0,.61,1.87,5.71,5.71,0,0,0,5.17,2.87,6.81,6.81,0,0,0,4.94-2.1.55.55,0,0,1,.43-.24.46.46,0,0,1,.47.44.68.68,0,0,1,0,.26,8.49,8.49,0,0,1-7.87,5,7.27,7.27,0,0,1-7.51-7.54,9.21,9.21,0,0,1,9.08-9.38C173.14,140.06,175.51,142.29,175.51,144.86ZM164,145.93a7.41,7.41,0,0,0-.1,1.24c0,.13.1.2.26.2,1.51,0,7.25-1,7.25-1.61a3.7,3.7,0,0,0-3.58-3.37C165.7,142.39,164.4,144,164,145.93Z"/><path class="cls-1" d="M191.66,135.59a4,4,0,0,1-3.2,1.23c-.77,0-1.57-.17-2.27-.17a1.76,1.76,0,0,0-2,1.91,4.84,4.84,0,0,0,.4,1.7.74.74,0,0,0,.77.57h5.07c.4,0,.53.4.53.76s-.23.9-.56.94l-5.28.5-.3,8.91c0,2.33,1.44,3.24,3.87,3.57a.54.54,0,0,1,.44.53c0,.37-.2.57-.5.57H178.38a.47.47,0,0,1-.5-.5.59.59,0,0,1,.46-.6c1.84-.5,2.07-1.9,2.14-3.6l.3-8.65a.21.21,0,0,0-.23-.23h-2.3c-.24,0-.41-.34-.41-.7a.7.7,0,0,1,.44-.74c.4-.13,2.23-.6,2.6-.7a8.4,8.4,0,0,1,3.91-6.37,13.63,13.63,0,0,1,7.74-2.17A5.09,5.09,0,0,1,191.66,135.59Z"/><path class="cls-1" d="M68.39,172.35a4.9,4.9,0,0,1-2.67.78,4.85,4.85,0,0,1-5.14-4.93,5,5,0,0,1,5.15-4.93,4.67,4.67,0,0,1,2.39.65l-.47.78a4,4,0,0,0-1.93-.51,3.9,3.9,0,0,0-4.06,4,3.8,3.8,0,0,0,4.07,4,3.94,3.94,0,0,0,2.13-.63Z"/><path class="cls-1" d="M75.7,163.43h.91L79.94,173H78.8l-.72-2.17H73.89L73.07,173H72Zm-1.47,6.45h3.55l-1.66-5h0Z"/><path class="cls-1" d="M86.14,164.36V173h-1v-8.61H82.66v-.93H88.6v.93Z"/><path class="cls-1" d="M95,163.43h.92L99.25,173H98.12l-.72-2.17H93.2L92.38,173h-1Zm-1.47,6.45H97.1l-1.67-5h0Z"/><path class="cls-1" d="M110.29,173l-5.68-7.66V173h-1v-9.54h.75l5.7,7.67v-7.67h1V173Z"/><path class="cls-1" d="M116.59,173v-9.54h1V173Z"/><path class="cls-1" d="M125.68,163.43h.91l3.33,9.54h-1.13l-.72-2.17h-4.2l-.82,2.17h-1Zm-1.47,6.45h3.56l-1.67-5h0Z"/><path class="cls-2" d="M144.85,49.31v-1a48.82,48.82,0,0,0-97.63,0v1ZM126,19.53a41.63,41.63,0,0,1,11.92,28.81H97.2ZM96.51,47.65V6.91a41.71,41.71,0,0,1,28.81,11.93Zm-1,0L66.73,18.84A41.64,41.64,0,0,1,95.54,6.91ZM66,19.53,94.85,48.34H54.11A41.67,41.67,0,0,1,66,19.53ZM96,1a47.9,47.9,0,0,1,47.84,47.36h-5a42.89,42.89,0,0,0-85.78,0H48.19A47.89,47.89,0,0,1,96,1Z"/><path class="cls-3" d="M144.84,54.7H88.07v56.54h56.77V104h0V54.7Zm-1,1V74.14a18.88,18.88,0,0,1-18.51-18.47Zm-19.47,0a19.81,19.81,0,0,0,19.47,19.42v8.66a28.49,28.49,0,0,1-28.13-28.08Zm-9.62,0a29.45,29.45,0,0,0,29.09,29v8.66a38.14,38.14,0,0,1-37.75-37.7Zm-9.61,0a39.08,39.08,0,0,0,38.7,38.66V103A47.74,47.74,0,0,1,96.52,55.67ZM89,110.26V74.05a58.65,58.65,0,0,0,35.84,36.21Zm39,0A57.62,57.62,0,0,1,89,70.79V55.67h6.51A48.72,48.72,0,0,0,143.87,104v6.31Z"/><path class="cls-4" d="M47.14,111.31H82.68V54.53H47.14ZM81.71,99.82,71.19,110.34H64.65L81.71,93.28Zm0-7.92L63.27,110.34H56.72l25-25Zm0-7.93L55.35,110.34H48.81l32.9-32.9Zm0-15.83L48.12,101.72V95.18L81.71,61.59ZM48.12,79.33,71.94,55.51h6.55L48.12,85.88Zm0-1.37V71.41L64,55.51h6.55Zm0-7.93V63.48l7.94-7.95,0,0h6.61Zm0,33.07L81.71,69.52v6.54L48.12,109.65Zm24.45,7.24,9.14-9.14v9.14Zm9.14-50.13L48.12,93.8V87.25L79.87,55.51h1.84Zm-27-4.7L48.12,62.1V55.51Z"/></g></g></svg>