<svg xmlns="http://www.w3.org/2000/svg" viewBox="0 0 288.8 264.49"><defs><style>.cls-1{fill:#9b80b9;}.cls-2{fill:#ed7568;}.cls-3{fill:#f4ea6b;}.cls-4{fill:none;stroke-width:0.5px;}.cls-4,.cls-6{stroke:#1d1d1b;stroke-miterlimit:10;}.cls-5,.cls-6{fill:#160f0f;}.cls-6{stroke-width:0.25px;}</style></defs><g id="Livello_2" data-name="Livello 2"><g id="Livello_1-2" data-name="Livello 1"><rect class="cls-1" x="142.38" y="97.31" width="83.7" height="83.7"/><rect class="cls-2" x="63.9" y="95.45" width="53.96" height="84.92"/><path class="cls-3" d="M201.93,74l0-1.46a73.22,73.22,0,0,0-146.44,0l0,1.46Z"/><polyline class="cls-4" points="232.84 85.33 232.84 85.39 232.75 85.39"/><path class="cls-5" d="M16.07,238.06a.82.82,0,0,1,.75.85.74.74,0,0,1-.8.8H.75A.71.71,0,0,1,0,239a.87.87,0,0,1,.7-.9c2.85-.76,3.05-2.91,3.15-5.41l.7-20.72a3.24,3.24,0,0,0-3-3.55.84.84,0,0,1,.15-1.66H7.81c2.5,0,5.9-.3,10.66-.3,8,0,11,4.56,11,9.66,0,6.31-4.81,12.87-14.92,12.87H11l-.15,4.4C10.81,236.7,12.61,237.65,16.07,238.06Zm6.55-19.62c0-7.26-5.7-9.61-10.11-9.61-.55,0-.85.2-.85.7l-.55,14.61a1.44,1.44,0,0,0,.65,1.35,7.15,7.15,0,0,0,3.3.75C19.92,226.24,22.62,223,22.62,218.44Z"/><path class="cls-5" d="M43,215.73l-.4,5.46c0,.15,0,.2.1.2s.1,0,.15-.15c1.41-3.1,5-6.46,8-6.46,1.7,0,2,2.91,2,6.41,0,1.3-.4,2.55-1.35,2.55a2.13,2.13,0,0,1-1.35-.5c-.85-.55-2-1.9-3.8-1.9-2.5,0-3.41,2.6-3.51,4.95l-.25,6.41c0,3.5,1.76,4.75,5.61,5.36a.76.76,0,0,1,.65.8.8.8,0,0,1-.8.85H32.83A.75.75,0,0,1,32,239a.87.87,0,0,1,.75-.9c2.91-.71,3.06-2.86,3.16-5.46l.35-9.81c0-1.9-1.15-2.7-3.66-2.7a1.18,1.18,0,0,1-.35-.8,1.21,1.21,0,0,1,1.1-1.15,19,19,0,0,0,5.76-2.21,4,4,0,0,1,2.25-.9A2,2,0,0,1,43,215.73Z"/><path class="cls-5" d="M60.16,222.54c0-1.9-1.2-2.7-3.7-2.7a1.1,1.1,0,0,1,.7-1.9A16.55,16.55,0,0,0,63,215.63a4.78,4.78,0,0,1,2.25-.85,2.06,2.06,0,0,1,1.7.7l-.6,18c0,2.1.2,4.1,2.8,4.61a.73.73,0,0,1,.65.8.8.8,0,0,1-.8.85H56.51a.7.7,0,0,1-.7-.75.83.83,0,0,1,.65-.9c2.85-.61,3.25-2.56,3.35-5.46Zm7.36-16.12c0,2.61-1.6,4.06-4.15,4.06-2.71,0-3.81-1.4-3.81-3.5,0-2.61,1.55-4.06,4.11-4.06S67.52,204.32,67.52,206.42Z"/><path class="cls-5" d="M75.13,220.49a4.24,4.24,0,0,0-3.8-3.16.82.82,0,0,1-.66-.9.76.76,0,0,1,.81-.8H84.54a.75.75,0,0,1,.8.85c0,.45-.2.85-.75.85-1.55,0-2.3.66-2.3,1.81a4.42,4.42,0,0,0,.2,1.35L87,235.3h.25l5.91-14.81a3,3,0,0,0,.25-1.2c0-1.55-1.71-1.9-3.51-2a.76.76,0,0,1-.75-.85.78.78,0,0,1,.8-.85H100.5a.8.8,0,0,1,.85.8.84.84,0,0,1-.8.9c-2,.11-2.85,1-3.75,3.16l-8.21,19c-.15.4-1.3.65-3.3.7s-3.15-.25-3.3-.6Z"/><path class="cls-5" d="M106,224.84c-1.45,0-3.45-1.25-3.45-2.65s1.65-3.15,2.9-4.15a13.88,13.88,0,0,1,8.81-3.11c5.3,0,9.31,2.81,9.31,9.61l-.3,8.51c0,2.45,1,3.9,2.65,3.9h.55c.5,0,.75.05.75.55,0,1.36-3.4,2.51-5.6,2.51-3.16,0-4.66-1.95-4.66-4.51,0-.05,0-.05-.15-.05s-.2,0-.2.05a8.27,8.27,0,0,1-7.66,4.71c-4.25,0-7-3.16-7-7.51a2.44,2.44,0,0,1,1.1-2.25c2.4-1.9,8.06-3.81,13-4.76.65-.1,1-.2,1-1.1,0-4.15-2.7-5.7-5.8-5.7-1.46,0-3.36.25-3.36,1.5C107.86,223.29,107.46,224.84,106,224.84ZM112.12,236c4,0,4.85-4.35,4.85-7v-1.31a.24.24,0,0,0-.25-.25.38.38,0,0,0-.2.05c-2.3.61-8.21,2.51-8.21,4.06C108.31,234,109.76,236,112.12,236Z"/><path class="cls-5" d="M132.64,219.69c0-.25-.1-.35-.4-.35h-3.36c-.4-.05-.55-.45-.55-1s.15-1,.6-1.1a11.93,11.93,0,0,0,8.26-7.91c.1-.4.7-.6,1.25-.6s1.16.25,1.16.75l-.26,6.2c0,.2.06.35.36.35h7.1c.55.1.75.6.75,1.15s-.3,1.31-.85,1.41l-7.41.75-.4,11.31a5.2,5.2,0,0,0,1,3.7,4.22,4.22,0,0,0,3.1,1.2,5.52,5.52,0,0,0,3.8-1.5,1.19,1.19,0,0,1,.45-.15.71.71,0,0,1,.7.8,1.42,1.42,0,0,1-.2.65,10,10,0,0,1-8.6,4.91,6.76,6.76,0,0,1-5.31-2,8.09,8.09,0,0,1-1.6-5.46Z"/><path class="cls-5" d="M173,222.09a3.61,3.61,0,0,1-2.6,3.65c-3.06,1.15-10.91,2.06-14,2.06a.27.27,0,0,0-.3.3,10.21,10.21,0,0,0,.9,2.8,8.6,8.6,0,0,0,7.76,4.3,10.21,10.21,0,0,0,7.41-3.15.85.85,0,0,1,.65-.35.67.67,0,0,1,.7.65,1.24,1.24,0,0,1-.05.4,12.76,12.76,0,0,1-11.81,7.51A10.9,10.9,0,0,1,150.41,229c0-7.46,5.75-14.07,13.61-14.07C169.43,214.88,173,218.24,173,222.09Zm-17.27,1.6a11.54,11.54,0,0,0-.15,1.85c0,.2.15.3.4.3,2.25,0,10.86-1.55,10.86-2.4a5.53,5.53,0,0,0-5.35-5.05C158.26,218.39,156.31,220.74,155.71,223.69Z"/><path class="cls-5" d="M196.9,206.17c6.41,0,8.41,1.86,8.41,6.31,0,1.05-.2,3.25-.2,3.75a1,1,0,0,1-1,1.1c-.5,0-.85-.4-1.15-.9-1.85-4.1-5.41-6.5-9.31-6.5-6.4,0-10.56,5-10.56,11.86,0,7.16,4.2,13,11.76,13,3.26,0,6.61-1.3,8.16-4.35a1.4,1.4,0,0,1,1.1-.8.91.91,0,0,1,.85,1c0,.45-.15,1-.2,1.7a7.09,7.09,0,0,1-2.25,4.55,15,15,0,0,1-10.21,3.41c-8.61,0-15-5.66-15-15.12C177.29,214.48,185.89,206.17,196.9,206.17Z"/><path class="cls-5" d="M234.74,223.54l-.35,9.56c0,2.85.4,4.4,2.81,5a.79.79,0,0,1,.7.8.78.78,0,0,1-.8.85H224.63a.67.67,0,0,1-.7-.75.83.83,0,0,1,.65-.9c3-.71,3.21-2.66,3.31-5.41l.25-6.81c0-2.85-.55-6.25-4.26-6.25-4.35,0-5.6,4.35-5.7,8.31l-.2,5.6c0,2.55.4,4.05,2.65,4.56.45.15.7.4.7.8a.78.78,0,0,1-.8.85H208.22a.68.68,0,0,1-.75-.75.83.83,0,0,1,.7-.9c2.8-.71,3.1-2.86,3.2-5.41l.7-21.52c0-1.9-1.2-2.75-3.7-2.75a1.12,1.12,0,0,1-.35-.85,1,1,0,0,1,1-1,18.63,18.63,0,0,0,5.9-2.3,4.26,4.26,0,0,1,2.31-.9,1.93,1.93,0,0,1,1.6.7l-.45,12.81a39.21,39.21,0,0,1-.35,4.36c0,.1.05.15.1.15a.11.11,0,0,0,.1-.1c1.7-3.91,5.1-6.36,9-6.36C232.89,214.88,234.74,218.89,234.74,223.54Z"/><path class="cls-5" d="M263.27,222.09a3.61,3.61,0,0,1-2.6,3.65c-3.05,1.15-10.91,2.06-14,2.06a.27.27,0,0,0-.3.3,10.21,10.21,0,0,0,.9,2.8,8.57,8.57,0,0,0,7.76,4.3,10.18,10.18,0,0,0,7.4-3.15.85.85,0,0,1,.65-.35.67.67,0,0,1,.7.65,1.24,1.24,0,0,1-.05.4A12.75,12.75,0,0,1,252,240.26,10.9,10.9,0,0,1,240.7,229c0-7.46,5.76-14.07,13.61-14.07C259.72,214.88,263.27,218.24,263.27,222.09ZM246,223.69a11.54,11.54,0,0,0-.15,1.85c0,.2.15.3.4.3,2.25,0,10.86-1.55,10.86-2.4a5.53,5.53,0,0,0-5.36-5.05C248.56,218.39,246.61,220.74,246,223.69Z"/><path class="cls-5" d="M287.5,208.18a6,6,0,0,1-4.81,1.85c-1.15,0-2.35-.25-3.4-.25a2.63,2.63,0,0,0-3,2.85,7.49,7.49,0,0,0,.6,2.55,1.1,1.1,0,0,0,1.15.85h7.61c.6,0,.8.6.8,1.15,0,.71-.35,1.36-.85,1.41l-7.91.75-.45,13.36c0,3.5,2.15,4.85,5.8,5.36a.79.79,0,0,1,.66.8c0,.55-.3.85-.75.85H267.58a.71.71,0,0,1-.75-.75.87.87,0,0,1,.7-.9c2.75-.76,3.1-2.86,3.2-5.41l.45-13a.32.32,0,0,0-.35-.35h-3.45c-.35,0-.6-.5-.6-1.05s.2-1,.65-1.11,3.35-.9,3.9-1.05a12.66,12.66,0,0,1,5.86-9.56,20.5,20.5,0,0,1,11.61-3.25A7.58,7.58,0,0,1,287.5,208.18Z"/><path class="cls-5" d="M102.59,263.32a7.32,7.32,0,0,1-4,1.17c-4.4,0-7.71-3-7.71-7.4a7.47,7.47,0,0,1,7.73-7.4,6.92,6.92,0,0,1,3.57,1l-.69,1.16a6.07,6.07,0,0,0-2.9-.75,5.85,5.85,0,0,0-6.1,6c0,3.66,2.46,6,6.12,6a5.92,5.92,0,0,0,3.19-.94Z"/><path class="cls-5" d="M113.55,249.93h1.37l5,14.31h-1.69L117.13,261h-6.3l-1.22,3.25H108Zm-2.2,9.67h5.33l-2.49-7.54h0Z"/><path class="cls-5" d="M129.22,251.32v12.92H127.7V251.32H124v-1.39h8.92v1.39Z"/><path class="cls-5" d="M142.53,249.93h1.37l5,14.31h-1.7L146.11,261h-6.3l-1.23,3.25H137Zm-2.21,9.67h5.34l-2.5-7.54h0Z"/><path class="cls-5" d="M165.45,264.24l-8.53-11.49v11.49h-1.43V249.93h1.13l8.54,11.51V249.93h1.43v14.31Z"/><path class="cls-5" d="M174.9,264.24V249.93h1.51v14.31Z"/><path class="cls-5" d="M188.53,249.93h1.37l5,14.31H193.2L192.11,261h-6.3l-1.22,3.25H183Zm-2.2,9.67h5.33l-2.49-7.54h0Z"/><path class="cls-6" d="M217.28,78.75l0-1.46a73.22,73.22,0,0,0-146.44,0l0,1.46ZM189,34.08a62.39,62.39,0,0,1,17.89,43.21h-61.1ZM144.77,76.26V15.15A62.55,62.55,0,0,1,188,33Zm-1.46,0L100.1,33a62.45,62.45,0,0,1,43.21-17.89ZM99.06,34.08l43.22,43.21H81.17A62.51,62.51,0,0,1,99.06,34.08ZM144,6.24A71.85,71.85,0,0,1,215.8,77.29h-7.43a64.34,64.34,0,0,0-128.67,0H72.28A71.86,71.86,0,0,1,144,6.24Z"/><path class="cls-6" d="M217.28,86.84H132.11v84.81h85.17V160.73h0V86.84Zm-1.46,1.46V116A28.32,28.32,0,0,1,188,88.3Zm-29.21,0a29.73,29.73,0,0,0,29.21,29.13v13a42.76,42.76,0,0,1-42.2-42.12Zm-14.43,0a44.18,44.18,0,0,0,43.64,43.55v13A57.18,57.18,0,0,1,159.2,88.3Zm-14.42,0a58.62,58.62,0,0,0,58.06,58v13a71.61,71.61,0,0,1-71-71Zm-24.19,81.89V115.86a88,88,0,0,0,53.76,54.33Zm58.44,0A86.45,86.45,0,0,1,133.57,111V88.3h9.77a73.06,73.06,0,0,0,72.48,72.41v9.48Z"/><path class="cls-6" d="M70.72,171.76H124V86.59H70.72Zm51.85-17.24L106.79,170.3H97l25.59-25.59Zm0-11.87L94.92,170.3H85.09l37.48-37.48Zm0-11.9L83,170.3H73.21l49.36-49.36Zm0-23.75L72.18,157.37v-9.81l50.39-50.39ZM72.18,123.79l35.74-35.74h9.83L72.18,133.6Zm0-2.07V111.9L96,88.05h9.82Zm0-11.89V100L84.09,88.09l0,0H94Zm0,49.61,50.39-50.38v9.81L72.18,169.26Zm36.68,10.86,13.71-13.71V170.3Zm13.71-75.2L72.18,145.5v-9.83l47.63-47.62h2.76Zm-40.5-7-9.89,9.88V88.05Z"/></g></g></svg>