<svg xmlns="http://www.w3.org/2000/svg" viewBox="0 0 397.65 357.59"><g id="Livello_2" data-name="Livello 2"><g id="Livello_1-2" data-name="Livello 1"><path d="M22.12,321.19a1.15,1.15,0,0,1,1,1.18,1,1,0,0,1-1.1,1.1H1a1,1,0,0,1-1-1,1.2,1.2,0,0,1,1-1.24c3.93-1,4.21-4,4.35-7.44l1-28.53c0-2.62-1.31-4.55-4.2-4.9a1.15,1.15,0,0,1,.2-2.27h8.48c3.45,0,8.13-.42,14.68-.42,11,0,15.1,6.28,15.1,13.31,0,8.68-6.62,17.71-20.54,17.71h-4.9l-.2,6.07C14.89,319.33,17.37,320.64,22.12,321.19Zm9-27c0-10-7.85-13.24-13.92-13.24-.76,0-1.17.28-1.17,1L15.3,302a2,2,0,0,0,.9,1.86,9.83,9.83,0,0,0,4.55,1C27.43,304.93,31.15,300.45,31.15,294.18Z"/><path d="M59.2,290.45,58.65,298c0,.2.07.27.14.27s.14-.07.2-.2c1.93-4.28,6.83-8.9,11-8.9,2.35,0,2.69,4,2.69,8.83,0,1.79-.55,3.51-1.86,3.51a2.9,2.9,0,0,1-1.86-.69c-1.17-.76-2.83-2.62-5.24-2.62-3.44,0-4.69,3.59-4.82,6.83l-.35,8.82c0,4.82,2.41,6.55,7.72,7.37a1.08,1.08,0,0,1,.9,1.11A1.1,1.1,0,0,1,66,323.47H45.21a1,1,0,0,1-1.1-1,1.21,1.21,0,0,1,1-1.24c4-1,4.2-3.92,4.34-7.51L50,300.17c0-2.62-1.59-3.72-5-3.72a1.56,1.56,0,0,1,1-2.69,26.08,26.08,0,0,0,7.92-3A5.52,5.52,0,0,1,57,289.49,2.73,2.73,0,0,1,59.2,290.45Z"/><path d="M82.84,299.83c0-2.62-1.66-3.72-5.1-3.72a1.52,1.52,0,0,1,1-2.62,22.93,22.93,0,0,0,8-3.17,6.5,6.5,0,0,1,3.1-1.18,2.83,2.83,0,0,1,2.34,1l-.82,24.74c0,2.9.27,5.65,3.86,6.34a1,1,0,0,1,.89,1.11,1.1,1.1,0,0,1-1.1,1.17H77.81a1,1,0,0,1-1-1,1.17,1.17,0,0,1,.9-1.24c3.93-.82,4.48-3.51,4.62-7.51ZM93,277.63c0,3.59-2.21,5.59-5.72,5.59-3.72,0-5.24-1.93-5.24-4.83,0-3.58,2.14-5.58,5.65-5.58C91.38,272.81,93,274.74,93,277.63Z"/><path d="M103.44,297c-1.17-3.31-3.3-4.13-5.23-4.34a1.15,1.15,0,0,1-.9-1.24,1,1,0,0,1,1.1-1.1h18a1,1,0,0,1,1.1,1.17c0,.62-.27,1.17-1,1.17-2.14,0-3.17.9-3.17,2.48a6,6,0,0,0,.28,1.86l6.2,20.4h.34l8.14-20.4a4.25,4.25,0,0,0,.34-1.65c0-2.14-2.34-2.62-4.82-2.69a1.05,1.05,0,0,1-1-1.17,1.07,1.07,0,0,1,1.11-1.17h14.54a1.1,1.1,0,0,1,1.17,1.1,1.15,1.15,0,0,1-1.1,1.24c-2.69.14-3.93,1.38-5.17,4.34L122,323.12c-.21.56-1.8.9-4.55,1s-4.35-.35-4.55-.83Z"/><path d="M146,303c-2,0-4.76-1.72-4.76-3.65s2.28-4.35,4-5.72a19.14,19.14,0,0,1,12.13-4.28c7.3,0,12.82,3.86,12.82,13.24l-.41,11.71c0,3.38,1.44,5.38,3.65,5.38h.76c.69,0,1,.07,1,.76,0,1.86-4.69,3.44-7.72,3.44-4.34,0-6.41-2.69-6.41-6.2,0-.07-.07-.07-.21-.07s-.27,0-.27.07A11.41,11.41,0,0,1,150,324.16c-5.86,0-9.65-4.34-9.65-10.34a3.37,3.37,0,0,1,1.52-3.1c3.31-2.62,11.1-5.24,17.85-6.55.9-.14,1.38-.28,1.38-1.52,0-5.72-3.72-7.85-8-7.85-2,0-4.61.34-4.61,2.06C148.52,300.86,148,303,146,303Zm8.41,15.37c5.58,0,6.68-6,6.68-9.65v-1.79a.33.33,0,0,0-.34-.35.53.53,0,0,0-.28.07c-3.17.83-11.3,3.45-11.3,5.58C149.14,315.54,151.14,318.37,154.38,318.37Z"/><path d="M182.63,295.9c0-.35-.14-.48-.55-.48h-4.62c-.55-.07-.76-.62-.76-1.38s.21-1.38.83-1.52a16.41,16.41,0,0,0,11.37-10.89c.14-.55,1-.83,1.72-.83.9,0,1.59.35,1.59,1l-.34,8.54c0,.28.06.49.48.49h9.78c.76.14,1,.82,1,1.58s-.41,1.8-1.17,1.93l-10.2,1L191.25,311c0,2,.2,3.86,1.37,5.1a5.81,5.81,0,0,0,4.28,1.66,7.57,7.57,0,0,0,5.23-2.07,1.67,1.67,0,0,1,.63-.21,1,1,0,0,1,1,1.11,1.91,1.91,0,0,1-.28.89,13.71,13.71,0,0,1-11.85,6.76c-3.1,0-5.58-.9-7.31-2.83s-2.2-4.55-2.2-7.51Z"/><path d="M238.18,299.21a5,5,0,0,1-3.59,5c-4.2,1.58-15,2.82-19.22,2.82a.37.37,0,0,0-.42.42,14.19,14.19,0,0,0,1.24,3.86,11.83,11.83,0,0,0,10.69,5.93,14,14,0,0,0,10.2-4.35,1.18,1.18,0,0,1,.89-.48.93.93,0,0,1,1,.9,1.71,1.71,0,0,1-.07.55c-2.69,6.48-9.44,10.34-16.27,10.34-9.23-.07-15.51-6.69-15.51-15.58,0-10.27,7.93-19.37,18.75-19.37C233.29,289.28,238.18,293.9,238.18,299.21Zm-23.78,2.2a15.67,15.67,0,0,0-.21,2.55c0,.28.21.42.56.42,3.1,0,14.95-2.14,14.95-3.31a7.62,7.62,0,0,0-7.37-7C217.92,294.11,215.23,297.35,214.4,301.41Z"/><path d="M271.12,277.29c8.82,0,11.58,2.55,11.58,8.68,0,1.45-.28,4.48-.28,5.17a1.33,1.33,0,0,1-1.37,1.52c-.69,0-1.18-.55-1.59-1.24-2.55-5.65-7.44-9-12.82-9-8.82,0-14.54,6.89-14.54,16.33,0,9.86,5.79,17.92,16.19,17.92,4.49,0,9.1-1.79,11.24-6a1.92,1.92,0,0,1,1.52-1.1,1.25,1.25,0,0,1,1.17,1.37c0,.62-.21,1.38-.28,2.35a9.77,9.77,0,0,1-3.1,6.27c-3.86,3.38-8.75,4.69-14.06,4.69-11.86,0-20.68-7.79-20.68-20.82C244.1,288.73,256,277.29,271.12,277.29Z"/><path d="M323.22,301.21l-.48,13.16c0,3.93.55,6.07,3.86,6.82a1.12,1.12,0,0,1,1,1.11,1.07,1.07,0,0,1-1.11,1.17H309.3a.93.93,0,0,1-1-1,1.14,1.14,0,0,1,.89-1.24c4.07-1,4.41-3.65,4.55-7.44l.34-9.37c0-3.93-.75-8.62-5.85-8.62-6,0-7.72,6-7.86,11.44l-.28,7.72c0,3.52.56,5.58,3.66,6.27.62.21,1,.56,1,1.11a1.06,1.06,0,0,1-1.1,1.17h-17a.94.94,0,0,1-1-1,1.15,1.15,0,0,1,1-1.24c3.86-1,4.28-3.92,4.42-7.44l1-29.64c0-2.62-1.65-3.79-5.1-3.79a1.52,1.52,0,0,1-.48-1.17,1.41,1.41,0,0,1,1.38-1.38,25.69,25.69,0,0,0,8.13-3.17,5.81,5.81,0,0,1,3.17-1.24,2.67,2.67,0,0,1,2.21,1L300.69,292a53.36,53.36,0,0,1-.49,6c0,.13.07.2.14.2a.15.15,0,0,0,.14-.13c2.34-5.38,7-8.76,12.34-8.76C320.67,289.28,323.22,294.8,323.22,301.21Z"/><path d="M362.5,299.21a5,5,0,0,1-3.58,5c-4.2,1.58-15,2.82-19.23,2.82a.37.37,0,0,0-.41.42,13.86,13.86,0,0,0,1.24,3.86,11.8,11.8,0,0,0,10.68,5.93,14,14,0,0,0,10.2-4.35,1.2,1.2,0,0,1,.9-.48.93.93,0,0,1,1,.9,1.71,1.71,0,0,1-.07.55c-2.68,6.48-9.44,10.34-16.26,10.34-9.24-.07-15.51-6.69-15.51-15.58,0-10.27,7.93-19.37,18.75-19.37C357.61,289.28,362.5,293.9,362.5,299.21Zm-23.77,2.2a15.67,15.67,0,0,0-.21,2.55c0,.28.21.42.55.42,3.1,0,15-2.14,15-3.31a7.62,7.62,0,0,0-7.38-7C342.24,294.11,339.55,297.35,338.73,301.41Z"/><path d="M395.86,280.05c-1.52,1.72-3.65,2.55-6.62,2.55-1.58,0-3.24-.35-4.68-.35-2.35,0-4.07,1.17-4.07,3.93a10.21,10.21,0,0,0,.83,3.52,1.51,1.51,0,0,0,1.58,1.17h10.48c.83,0,1.1.82,1.1,1.58,0,1-.48,1.86-1.17,1.93l-10.89,1-.62,18.4c0,4.82,3,6.68,8,7.37a1.11,1.11,0,0,1,.9,1.11c0,.76-.41,1.17-1,1.17H368.43a1,1,0,0,1-1-1,1.22,1.22,0,0,1,1-1.24c3.79-1,4.27-3.92,4.41-7.44l.62-17.85a.43.43,0,0,0-.48-.48h-4.76c-.48,0-.82-.69-.82-1.45s.27-1.38.89-1.52c.83-.27,4.62-1.24,5.38-1.44a17.4,17.4,0,0,1,8.06-13.17,28.25,28.25,0,0,1,16-4.48C397.65,276.12,397.17,278.46,395.86,280.05Z"/><path d="M141.26,356a10.23,10.23,0,0,1-5.52,1.6c-6.05,0-10.61-4.11-10.61-10.19,0-5.86,4.79-10.19,10.64-10.19a9.61,9.61,0,0,1,4.93,1.35l-1,1.6a8.44,8.44,0,0,0-4-1,8.07,8.07,0,0,0-8.39,8.28c0,5,3.38,8.28,8.42,8.28a8.08,8.08,0,0,0,4.39-1.3Z"/><path d="M156.35,337.55h1.89l6.87,19.7h-2.34l-1.49-4.47h-8.67l-1.69,4.47h-2.17Zm-3,13.31h7.35l-3.44-10.39h0Z"/><path d="M177.92,339.46v17.79h-2.09V339.46h-5.09v-1.91H183v1.91Z"/><path d="M196.25,337.55h1.88l6.87,19.7h-2.34l-1.49-4.47H192.5l-1.69,4.47h-2.17Zm-3,13.31h7.34l-3.43-10.39h0Z"/><path d="M227.8,357.25l-11.74-15.82v15.82h-2v-19.7h1.55l11.77,15.85V337.55h2v19.7Z"/><path d="M240.81,357.25v-19.7h2.09v19.7Z"/><path d="M259.59,337.55h1.89l6.87,19.7H266l-1.49-4.47h-8.67l-1.69,4.47H252Zm-3,13.31h7.35l-3.44-10.39h0Z"/><path d="M299.17,101.85l0-2a100.82,100.82,0,0,0-201.64,0l0,2ZM260.26,40.34a86,86,0,0,1,24.63,59.5H200.76ZM199.34,98.41V14.28a86.06,86.06,0,0,1,59.49,24.63Zm-2,0-59.5-59.5a86,86,0,0,1,59.5-24.63ZM136.4,40.34l59.5,59.5H111.75A86.13,86.13,0,0,1,136.4,40.34ZM198.33,2a98.93,98.93,0,0,1,98.8,97.83H286.91a88.59,88.59,0,0,0-177.17,0H99.53A98.93,98.93,0,0,1,198.33,2Z"/><path d="M299.17,113H181.9V229.76H299.17v-15h0V113Zm-2,2v38.13A39,39,0,0,1,258.91,115Zm-40.21,0a40.93,40.93,0,0,0,40.21,40.11V173a58.88,58.88,0,0,1-58.1-58Zm-19.86,0a60.83,60.83,0,0,0,60.07,60v17.87a78.74,78.74,0,0,1-78-77.85Zm-19.86,0a80.7,80.7,0,0,0,79.93,79.83V212.7A98.61,98.61,0,0,1,199.35,115Zm-33.3,112.76V152.94a121.14,121.14,0,0,0,74,74.81Zm80.46,0a119,119,0,0,1-80.46-81.53V115h13.44a100.61,100.61,0,0,0,99.79,99.71v13.05Z"/><path d="M97.37,229.91h73.4V112.64H97.37Zm71.39-23.73L147,227.89H133.53l35.23-35.22Zm0-16.36-38.07,38.07H117.16l51.6-51.6Zm0-16.37-54.45,54.44h-13.5l67.95-67.95Zm0-32.71L99.38,210.1V196.59l69.38-69.38ZM99.38,163.86l49.21-49.21h13.53L99.38,177.37Zm0-2.84V147.49l32.83-32.84h13.54Zm0-16.38V131.11l16.41-16.41-.06,0h13.64Zm0,68.31,69.38-69.37v13.51L99.38,226.47Zm50.51,14.94L168.76,209v18.87Zm18.87-103.53L99.38,193.75V180.22L165,114.65h3.79ZM113,114.65,99.38,128.26V114.65Z"/></g></g></svg>