<svg width="454" height="384" viewBox="0 0 454 384" fill="none" xmlns="http://www.w3.org/2000/svg">
<path d="M294 89V87.2796C294 64.3968 284.413 42.4513 267.347 26.2707C250.281 10.0901 227.135 1 203 1C178.865 1 155.719 10.0901 138.653 26.2707C121.587 42.4513 112 64.3968 112 87.2796V89H294Z" fill="#F4EA6B"/>
<path fill-rule="evenodd" clip-rule="evenodd" d="M226.953 0.615845C213.667 0.615845 200.51 3.23287 188.234 8.3175C175.959 13.4022 164.805 20.8548 155.41 30.25C146.015 39.6452 138.562 50.7989 133.478 63.0742C129.29 73.1851 126.776 83.8939 126.019 94.7808C125.857 97.1114 125.776 99.4502 125.776 101.793V103.274H328.131V101.793C328.131 99.4502 328.049 97.1114 327.887 94.7808C327.131 83.8939 324.617 73.1851 320.429 63.0742C315.344 50.7988 307.892 39.6452 298.496 30.25C289.101 20.8548 277.948 13.4022 265.672 8.3175C253.397 3.23287 240.24 0.615845 226.953 0.615845ZM192.012 17.4371C203.09 12.8485 214.963 10.4868 226.953 10.4868C238.944 10.4868 250.817 12.8485 261.895 17.4371C272.973 22.0257 283.038 28.7512 291.517 37.2298C299.995 45.7084 306.721 55.7739 311.309 66.8517C314.824 75.337 317.032 84.2889 317.873 93.4027H310.932C310.112 85.1978 308.093 77.1419 304.926 69.4959C300.684 59.2564 294.468 49.9526 286.631 42.1157C278.794 34.2787 269.49 28.0621 259.251 23.8208C249.011 19.5795 238.036 17.3965 226.953 17.3965C215.87 17.3965 204.896 19.5795 194.656 23.8208C184.417 28.0621 175.113 34.2787 167.276 42.1157C159.439 49.9526 153.222 59.2564 148.981 69.4959C145.814 77.1419 143.795 85.1978 142.975 93.4028H136.033C136.874 84.2889 139.083 75.337 142.597 66.8517C147.186 55.7739 153.911 45.7084 162.39 37.2298C170.869 28.7512 180.934 22.0257 192.012 17.4371ZM198.434 32.9404C205.952 29.826 213.92 27.9685 222.018 27.431V85.9294L180.004 43.9154C185.575 39.396 191.781 35.696 198.434 32.9404ZM231.889 85.9294V27.431C239.987 27.9685 247.954 29.826 255.473 32.9404C262.126 35.696 268.331 39.396 273.903 43.9154L231.889 85.9294ZM158.101 73.2733C161.572 64.8921 166.542 57.2208 172.762 50.633L215.532 93.4027L152.901 93.4028C153.684 86.4967 155.43 79.72 158.101 73.2733ZM301.005 93.4027H238.375L281.145 50.633C287.364 57.2208 292.334 64.8921 295.806 73.2733C298.476 79.72 300.223 86.4967 301.005 93.4027Z" fill="black"/>
<path d="M340 129H227V241H340V129Z" fill="#9B80B9"/>
<path d="M186 129H112V241H186V129Z" fill="#ED7568"/>
<path fill-rule="evenodd" clip-rule="evenodd" d="M200.795 111.164H125.776V229.616H200.795V111.164ZM137.691 121.035H159.761L190.924 152.199V174.268L137.691 121.035ZM190.924 138.239L173.72 121.035H190.924V138.239ZM135.647 155.02V132.951L190.924 188.228V210.297L135.647 155.02ZM135.647 191.049V168.98L186.412 219.745H164.343L135.647 191.049ZM135.647 219.745V205.009L150.383 219.745H135.647Z" fill="black"/>
<path fill-rule="evenodd" clip-rule="evenodd" d="M328.169 111.164H209.717V229.616H328.169V111.164ZM318.298 219.421C265.839 215.357 223.976 173.494 219.912 121.035H233.78C237.776 165.859 273.475 201.557 318.298 205.553V219.421ZM318.298 195.638C278.932 191.707 247.626 160.401 243.695 121.035H257.599C261.412 152.763 286.57 177.921 318.298 181.734V195.638ZM318.298 171.78C292.031 168.087 271.246 147.302 267.553 121.035H281.553C284.994 139.659 299.674 154.339 318.298 157.78V171.78ZM318.298 147.692C305.139 144.554 294.779 134.194 291.641 121.035H318.298V147.692ZM219.588 187.736V159.747C231.363 186.481 252.852 207.97 279.586 219.745H251.597C239.165 211.012 228.321 200.168 219.588 187.736ZM219.588 219.745V203.837C224.46 209.553 229.781 214.873 235.496 219.745H219.588Z" fill="black"/>
<path d="M426.335 272.565C426.335 265.801 427.816 260.966 430.779 258.06C433.741 255.097 437.738 253.616 442.769 253.616C445.396 253.616 447.492 254.007 449.057 254.79C450.622 255.516 451.74 256.439 452.411 257.556C453.082 258.674 453.417 259.82 453.417 260.994C453.417 262.447 452.97 263.733 452.075 264.851C451.181 265.969 449.896 266.556 448.219 266.612C446.598 266.668 445.34 266.248 444.446 265.354C443.551 264.404 443.104 263.23 443.104 261.833C443.104 261.553 443.104 261.274 443.104 260.994C443.16 260.715 443.216 260.435 443.272 260.156C442.992 259.876 442.657 259.708 442.266 259.653C441.93 259.541 441.623 259.485 441.343 259.485C440.449 259.485 439.75 259.764 439.247 260.323C438.744 260.826 438.409 261.469 438.241 262.252C438.073 263.034 437.99 263.845 437.99 264.683V274.996H447.38V281.452L438.073 281.704L438.157 303.252C438.157 304.034 438.129 305.18 438.073 306.689C438.018 308.143 437.934 309.512 437.822 310.798C438.772 310.686 439.834 310.63 441.008 310.63C442.238 310.574 443.132 310.546 443.691 310.546V316.918H421.305V311.468C422.87 311.468 423.988 311.161 424.658 310.546C425.385 309.931 425.832 309.065 426 307.947C426.223 306.773 426.335 305.46 426.335 304.006V281.871L420.215 281.955V274.996H426.335V272.565Z" fill="black"/>
<path d="M397.569 318.26C393.489 318.26 389.884 317.366 386.753 315.577C383.623 313.732 381.192 311.161 379.459 307.863C377.726 304.509 376.86 300.569 376.86 296.041C376.86 292.128 377.726 288.467 379.459 285.057C381.192 281.648 383.623 278.909 386.753 276.841C389.94 274.717 393.629 273.655 397.821 273.655C400.169 273.655 402.46 273.99 404.696 274.661C406.932 275.276 408.944 276.366 410.733 277.931C412.578 279.496 414.031 281.62 415.093 284.303C416.211 286.986 416.742 290.34 416.686 294.364L389.185 294.867C389.185 297.886 389.548 300.597 390.275 303C391.058 305.404 392.315 307.304 394.048 308.702C395.781 310.099 398.1 310.798 401.007 310.798C402.125 310.798 403.383 310.602 404.78 310.211C406.233 309.82 407.687 309.177 409.14 308.282C410.649 307.332 412.047 306.074 413.332 304.509L417.105 308.031C415.093 310.882 412.941 313.062 410.649 314.571C408.357 316.024 406.066 317.002 403.774 317.505C401.538 318.008 399.47 318.26 397.569 318.26ZM389.688 288.998H405.115C405.06 286.65 404.724 284.806 404.109 283.464C403.55 282.067 402.768 281.061 401.762 280.446C400.756 279.831 399.582 279.524 398.24 279.524C395.781 279.524 393.852 280.418 392.455 282.207C391.058 283.94 390.135 286.203 389.688 288.998Z" fill="black"/>
<path d="M352.286 311.468C353.851 311.468 354.969 311.161 355.639 310.546C356.366 309.931 356.813 309.065 356.981 307.947C357.204 306.773 357.316 305.46 357.316 304.006L357.232 292.1C357.232 288.467 356.673 285.784 355.555 284.051C354.493 282.263 352.789 281.368 350.441 281.368C349.044 281.368 347.646 281.676 346.249 282.291C344.907 282.905 343.761 283.632 342.811 284.471V303.419C342.811 304.202 342.783 305.32 342.727 306.773C342.671 308.171 342.588 309.512 342.476 310.798C343.426 310.686 344.432 310.63 345.494 310.63C346.556 310.574 347.367 310.546 347.926 310.546V316.918H325.958V311.468C327.523 311.468 328.641 311.161 329.312 310.546C330.039 309.931 330.486 309.065 330.654 307.947C330.821 306.773 330.905 305.46 330.905 304.006V269.546C330.905 268.54 330.933 267.394 330.989 266.109C331.045 264.767 331.129 263.481 331.241 262.252C330.346 262.308 329.284 262.364 328.055 262.419C326.881 262.419 325.986 262.447 325.371 262.503V256.131C327.999 256.131 330.179 255.991 331.911 255.712C333.7 255.432 335.097 255.097 336.104 254.706C337.166 254.314 337.892 253.951 338.284 253.616H342.811V278.35C343.929 277.456 345.215 276.673 346.668 276.002C348.121 275.276 349.603 274.717 351.112 274.325C352.621 273.878 353.934 273.655 355.052 273.655C360.195 273.655 363.828 275.136 365.952 278.098C368.076 281.005 369.166 285.7 369.222 292.184V303.419C369.222 304.202 369.194 305.32 369.138 306.773C369.082 308.171 368.999 309.512 368.887 310.798C369.781 310.686 370.759 310.63 371.821 310.63C372.883 310.574 373.722 310.546 374.337 310.546V316.918H352.286V311.468Z" fill="black"/>
<path d="M315.27 277.008C314.544 272.369 312.978 268.875 310.575 266.528C308.227 264.18 305.097 262.978 301.184 262.923C298.278 262.923 295.734 263.593 293.554 264.935C291.375 266.276 289.558 268.065 288.105 270.301C286.707 272.537 285.645 275.08 284.918 277.931C284.248 280.781 283.912 283.716 283.912 286.734C283.912 291.541 284.583 295.818 285.925 299.563C287.322 303.252 289.334 306.158 291.961 308.282C294.589 310.406 297.775 311.468 301.52 311.468C305.041 311.468 308.535 310.574 312 308.785C315.466 306.941 318.372 304.398 320.72 301.156L324.745 304.845C322.006 308.59 319.127 311.441 316.109 313.397C313.09 315.297 310.128 316.583 307.221 317.254C304.37 317.924 301.799 318.26 299.507 318.26C295.203 318.26 291.291 317.505 287.769 315.996C284.248 314.431 281.201 312.307 278.63 309.624C276.115 306.885 274.158 303.727 272.761 300.149C271.42 296.516 270.749 292.603 270.749 288.411C270.749 284.61 271.364 280.837 272.593 277.092C273.823 273.347 275.64 269.965 278.043 266.947C280.503 263.873 283.577 261.441 287.266 259.653C290.955 257.808 295.231 256.886 300.094 256.886C302.274 256.886 304.65 257.249 307.221 257.976C309.848 258.646 312.308 259.653 314.599 260.994L314.264 257.473H320.72V277.008H315.27Z" fill="black"/>
<path d="M247.854 318.26C243.829 318.26 240.252 317.366 237.122 315.577C233.992 313.732 231.56 311.161 229.827 307.863C228.095 304.509 227.228 300.569 227.228 296.041C227.228 292.128 228.095 288.467 229.827 285.057C231.56 281.648 233.992 278.909 237.122 276.841C240.308 274.717 243.997 273.655 248.189 273.655C250.537 273.655 252.801 273.99 254.981 274.661C257.161 275.331 259.117 276.449 260.85 278.015C262.583 279.58 263.952 281.648 264.958 284.219C266.02 286.79 266.523 289.92 266.467 293.61L238.296 294.113C238.296 297.578 238.687 300.653 239.47 303.336C240.308 305.963 241.65 308.059 243.494 309.624C245.339 311.133 247.77 311.888 250.789 311.888C252.13 311.888 253.555 311.664 255.065 311.217C256.63 310.714 258.167 309.987 259.676 309.037C261.185 308.031 262.527 306.801 263.701 305.348L266.887 308.282C265.042 310.965 263.002 313.034 260.766 314.487C258.53 315.94 256.294 316.918 254.059 317.421C251.823 317.98 249.754 318.26 247.854 318.26ZM238.715 289.082H256.155C256.099 286.846 255.763 284.974 255.148 283.464C254.59 281.899 253.751 280.725 252.633 279.943C251.515 279.104 250.146 278.685 248.525 278.685C245.786 278.685 243.578 279.608 241.901 281.452C240.28 283.241 239.218 285.784 238.715 289.082Z" fill="black"/>
<path d="M211.944 318.26C210.379 318.26 208.841 318.064 207.332 317.673C205.879 317.282 204.537 316.555 203.308 315.493C202.134 314.431 201.184 312.866 200.457 310.798C199.73 308.674 199.367 305.879 199.367 302.413L199.535 280.781L193.582 280.865V274.996C195.259 274.94 196.88 274.381 198.445 273.319C200.01 272.201 201.379 270.748 202.553 268.959C203.727 267.171 204.51 265.27 204.901 263.258H210.015L209.931 274.996H221.754V280.362L209.931 280.614L209.848 302.162C209.848 303.839 209.987 305.404 210.267 306.857C210.602 308.254 211.161 309.372 211.944 310.211C212.782 311.049 213.9 311.468 215.298 311.468C216.36 311.468 217.561 311.133 218.903 310.462C220.3 309.792 221.698 308.45 223.095 306.438L226.533 309.54C225.135 311.664 223.682 313.313 222.173 314.487C220.719 315.661 219.294 316.527 217.897 317.086C216.555 317.645 215.353 317.98 214.291 318.092C213.229 318.204 212.447 318.26 211.944 318.26Z" fill="black"/>
<path d="M178.02 316.918C177.852 316.08 177.741 315.381 177.685 314.822C177.685 314.207 177.657 313.509 177.601 312.726C175.7 314.627 173.66 316.024 171.48 316.918C169.356 317.813 167.148 318.26 164.856 318.26C161.056 318.26 158.121 317.226 156.053 315.158C154.041 313.089 153.034 310.546 153.034 307.528C153.034 304.845 153.761 302.581 155.214 300.736C156.668 298.836 158.568 297.299 160.916 296.125C163.263 294.895 165.863 293.973 168.713 293.358C171.564 292.687 174.387 292.324 177.182 292.268V287.657C177.182 286.036 176.986 284.554 176.595 283.213C176.259 281.815 175.617 280.725 174.666 279.943C173.716 279.104 172.319 278.685 170.474 278.685C169.244 278.741 167.987 279.021 166.701 279.524C165.471 279.971 164.493 280.698 163.767 281.704C164.214 282.207 164.493 282.766 164.605 283.381C164.717 283.94 164.773 284.443 164.773 284.89C164.773 285.896 164.381 286.958 163.599 288.076C162.816 289.138 161.559 289.641 159.826 289.585C158.317 289.529 157.143 288.998 156.304 287.992C155.522 286.986 155.131 285.784 155.131 284.387C155.131 282.263 155.885 280.418 157.394 278.853C158.959 277.232 161.056 275.974 163.683 275.08C166.31 274.13 169.244 273.655 172.486 273.655C177.293 273.655 180.983 274.912 183.554 277.428C186.125 279.943 187.383 283.967 187.327 289.501C187.327 291.458 187.327 293.246 187.327 294.867C187.327 296.432 187.299 298.025 187.243 299.646C187.243 301.211 187.243 302.972 187.243 304.929C187.243 305.767 187.215 306.829 187.159 308.115C187.103 309.344 187.019 310.574 186.908 311.804C187.914 311.692 188.92 311.636 189.926 311.636C190.988 311.58 191.854 311.524 192.525 311.468V316.918H178.02ZM177.098 297.215C175.421 297.327 173.772 297.606 172.151 298.053C170.53 298.445 169.077 299.004 167.791 299.73C166.505 300.457 165.471 301.379 164.689 302.497C163.962 303.559 163.627 304.789 163.683 306.186C163.739 307.919 164.298 309.205 165.36 310.043C166.422 310.826 167.651 311.217 169.049 311.217C170.67 311.217 172.123 310.882 173.409 310.211C174.75 309.54 175.98 308.646 177.098 307.528C177.098 306.969 177.098 306.382 177.098 305.767C177.098 305.152 177.098 304.537 177.098 303.922C177.098 303.14 177.098 302.162 177.098 300.988C177.098 299.814 177.098 298.556 177.098 297.215Z" fill="black"/>
<path d="M127.589 317.17L114.761 288.663C114.09 287.042 113.587 285.728 113.252 284.722C112.916 283.716 112.665 282.877 112.497 282.207C112.385 281.536 112.273 280.865 112.162 280.194L108.892 280.362V274.996H127.086V279.44C125.744 279.44 124.85 279.803 124.403 280.53C124.012 281.201 123.9 282.123 124.067 283.297C124.291 284.415 124.654 285.616 125.157 286.902L130.188 298.976C130.635 299.982 131.082 301.044 131.53 302.162C131.977 303.224 132.396 304.314 132.787 305.432H132.871C133.262 304.37 133.654 303.308 134.045 302.246C134.492 301.128 134.883 300.01 135.219 298.892L139.83 285.98C140.333 284.582 140.808 283.436 141.256 282.542C141.703 281.648 142.122 280.837 142.513 280.111L137.315 280.362V274.996H152.323V279.44C151.037 279.552 149.919 280.167 148.969 281.284C148.019 282.346 147.181 283.66 146.454 285.225C145.727 286.734 145.057 288.299 144.442 289.92L133.626 317.17H127.589Z" fill="black"/>
<path d="M87.8767 312.475C89.4977 312.475 90.6436 312.139 91.3143 311.468C91.9851 310.742 92.4043 309.736 92.572 308.45C92.7397 307.164 92.8235 305.711 92.8235 304.09V288.411C92.8235 287.461 92.8515 286.427 92.9074 285.309C92.9633 284.135 93.0471 282.933 93.1589 281.704C92.2087 281.76 91.1746 281.815 90.0567 281.871C88.9387 281.927 88.0164 281.983 87.2898 282.039V276.589C89.8051 276.589 91.8733 276.477 93.4943 276.254C95.1712 275.974 96.4568 275.639 97.3511 275.248C98.3014 274.856 98.9721 274.493 99.3634 274.158H103.136V304.929C103.136 305.823 103.108 306.913 103.053 308.199C103.053 309.428 102.969 310.63 102.801 311.804C103.695 311.692 104.646 311.636 105.652 311.636C106.714 311.58 107.58 311.552 108.251 311.552V316.918H87.8767V312.475ZM97.5188 266.947C95.8978 266.947 94.5284 266.36 93.4104 265.186C92.2925 263.957 91.7336 262.475 91.7336 260.743C91.7336 259.01 92.2925 257.529 93.4104 256.299C94.5843 255.069 95.9537 254.454 97.5188 254.454C99.1398 254.454 100.481 255.069 101.543 256.299C102.661 257.529 103.22 259.01 103.22 260.743C103.22 262.475 102.689 263.957 101.627 265.186C100.565 266.36 99.1957 266.947 97.5188 266.947Z" fill="black"/>
<path d="M50.6609 312.475C52.2819 312.475 53.4278 312.139 54.0985 311.468C54.7693 310.742 55.1885 309.736 55.3562 308.45C55.5239 307.164 55.6077 305.711 55.6077 304.09V288.327C55.6077 287.321 55.6357 286.259 55.6916 285.141C55.7475 284.023 55.8313 282.877 55.9431 281.704C54.9929 281.76 53.9588 281.815 52.8408 281.871C51.7229 281.871 50.8006 281.899 50.074 281.955V276.589H53.1762C55.4121 276.589 57.2846 276.338 58.7938 275.835C60.303 275.276 61.365 274.717 61.9799 274.158H65.5014C65.6132 274.828 65.697 275.89 65.7529 277.344C65.8088 278.797 65.8367 280.25 65.8367 281.704C67.1224 280.027 68.4639 278.601 69.8613 277.428C71.2587 276.198 72.684 275.276 74.1373 274.661C75.6465 273.99 77.1837 273.655 78.7488 273.655C80.5375 273.655 82.1026 274.158 83.4441 275.164C84.8415 276.17 85.5402 277.791 85.5402 280.027C85.5402 280.753 85.3446 281.536 84.9533 282.374C84.6179 283.213 84.0589 283.912 83.2764 284.471C82.5497 285.03 81.5436 285.309 80.258 285.309C79.0842 285.309 77.9662 284.946 76.9042 284.219C75.8981 283.436 75.3671 282.207 75.3112 280.53C74.1373 280.474 72.9076 280.893 71.622 281.788C70.3923 282.682 69.2744 283.772 68.2682 285.057C67.2621 286.343 66.4795 287.657 65.9206 288.998L66.0044 304.929C66.0044 305.823 65.9765 306.913 65.9206 308.199C65.8647 309.428 65.7808 310.63 65.669 311.804C66.5634 311.692 67.5136 311.636 68.5198 311.636C69.5259 311.58 70.3643 311.552 71.0351 311.552V316.918H50.6609V312.475Z" fill="black"/>
<path d="M0.527832 312.307C2.09293 312.251 3.2947 311.999 4.13314 311.552C4.97159 311.049 5.5585 310.211 5.89388 309.037C6.22926 307.807 6.39695 306.13 6.39695 304.006V270.552C6.39695 269.155 6.42489 267.813 6.48079 266.528C6.59258 265.242 6.67643 264.236 6.73232 263.509C5.78209 263.565 4.69211 263.621 3.46239 263.677C2.23267 263.677 1.25448 263.705 0.527832 263.761V258.227C4.16109 258.171 7.8223 258.143 11.5115 258.143C15.2006 258.143 18.8898 258.115 22.5789 258.06C27.6655 258.004 32.0534 258.646 35.7425 259.988C39.4317 261.274 42.2544 263.258 44.2108 265.941C46.1672 268.568 47.1454 271.978 47.1454 276.17C47.1454 278.406 46.6702 280.642 45.72 282.877C44.8257 285.057 43.3724 287.098 41.3601 288.998C39.4037 290.843 36.8045 292.352 33.5626 293.526C30.3765 294.7 26.5196 295.342 21.992 295.454C21.0977 295.454 20.2313 295.454 19.3928 295.454C18.5544 295.454 17.7439 295.426 16.9613 295.37V304.342C16.9613 305.907 16.9334 307.332 16.8775 308.618C16.8216 309.903 16.7378 310.91 16.626 311.636C17.3526 311.58 18.1631 311.552 19.0575 311.552C19.9518 311.496 20.8461 311.468 21.7405 311.468C22.6907 311.413 23.4174 311.385 23.9204 311.385V316.918H0.527832V312.307ZM16.9613 290.088C17.688 290.144 18.3867 290.2 19.0575 290.256C19.7282 290.312 20.4549 290.34 21.2374 290.34C24.3676 290.34 26.9947 289.781 29.1188 288.663C31.2988 287.545 32.9477 285.952 34.0656 283.884C35.1835 281.76 35.7425 279.188 35.7425 276.17C35.7425 273.431 35.3512 271.195 34.5687 269.462C33.7861 267.73 32.7521 266.416 31.4664 265.522C30.1808 264.571 28.7555 263.929 27.1904 263.593C25.6253 263.258 24.0602 263.09 22.4951 263.09C21.0418 263.09 19.8959 263.314 19.0575 263.761C18.2749 264.208 17.716 265.019 17.3806 266.192C17.1011 267.31 16.9613 268.848 16.9613 270.804V290.088Z" fill="black"/>
<path d="M76.7457 372.26V347.644H87.8409C89.3982 347.644 90.7907 348.033 92.0185 348.812C93.2463 349.59 94.1896 350.579 94.8485 351.776C95.5372 352.944 95.8816 354.172 95.8816 355.46C95.8816 356.807 95.5522 358.08 94.8934 359.278C94.2645 360.476 93.3661 361.449 92.1982 362.198C91.0602 362.946 89.6976 363.321 88.1105 363.321H79.5307V372.26H76.7457ZM79.5307 360.805H87.9757C89.0238 360.805 89.9222 360.566 90.6709 360.087C91.4196 359.577 92.0035 358.919 92.4228 358.11C92.842 357.302 93.0517 356.433 93.0517 355.505C93.0517 354.487 92.8121 353.588 92.3329 352.81C91.8538 352.001 91.2099 351.357 90.4014 350.878C89.5928 350.399 88.6944 350.159 87.7062 350.159H79.5307V360.805ZM116.947 372.26L128.177 347.644H130.513L141.653 372.26H138.688L135.274 364.848H123.371L120.002 372.26H116.947ZM129.345 351.147L124.044 362.377H134.556L129.345 351.147ZM166.94 372.26V347.644H169.725V369.744H184.594V372.26H166.94ZM227.947 369.744V372.26H209.844V347.644H227.587V350.159H212.629V358.559H225.701V360.895H212.629V369.744H227.947ZM254.371 372.26V347.644H265.736C267.293 347.644 268.67 348.033 269.868 348.812C271.096 349.59 272.054 350.579 272.743 351.776C273.432 352.944 273.776 354.172 273.776 355.46C273.776 356.628 273.522 357.721 273.013 358.739C272.534 359.757 271.845 360.626 270.946 361.344C270.078 362.063 269.045 362.542 267.847 362.782L274.405 372.26H271.171L264.972 363.321H257.156V372.26H254.371ZM257.156 360.805H265.826C266.844 360.805 267.727 360.566 268.476 360.087C269.254 359.577 269.853 358.919 270.273 358.11C270.692 357.272 270.901 356.388 270.901 355.46C270.901 354.502 270.662 353.633 270.183 352.854C269.734 352.046 269.105 351.402 268.296 350.923C267.488 350.414 266.574 350.159 265.556 350.159H257.156V360.805ZM324.325 372.26V352.72L314.713 367.768H313.095L303.438 352.72V372.26H300.653V347.644H303.572L313.904 363.995L324.236 347.644H327.155V372.26H324.325ZM366.139 372.44C364.252 372.44 362.53 372.095 360.973 371.406C359.445 370.688 358.113 369.744 356.975 368.576C355.867 367.379 355.013 366.046 354.414 364.579C353.815 363.081 353.516 361.539 353.516 359.952C353.516 358.305 353.83 356.748 354.459 355.28C355.088 353.783 355.972 352.45 357.11 351.282C358.248 350.114 359.58 349.201 361.108 348.542C362.665 347.853 364.357 347.509 366.183 347.509C368.04 347.509 369.732 347.868 371.259 348.587C372.817 349.306 374.149 350.264 375.257 351.462C376.365 352.66 377.219 354.007 377.818 355.505C378.417 356.972 378.716 358.469 378.716 359.997C378.716 361.644 378.402 363.216 377.773 364.713C377.144 366.211 376.261 367.543 375.123 368.711C374.015 369.849 372.682 370.763 371.125 371.451C369.597 372.11 367.935 372.44 366.139 372.44ZM356.346 359.952C356.346 361.24 356.571 362.482 357.02 363.68C357.499 364.848 358.173 365.911 359.041 366.869C359.91 367.798 360.943 368.532 362.141 369.071C363.368 369.61 364.701 369.879 366.139 369.879C367.636 369.879 368.983 369.595 370.181 369.026C371.379 368.457 372.397 367.693 373.236 366.735C374.074 365.776 374.718 364.713 375.167 363.545C375.647 362.377 375.886 361.18 375.886 359.952C375.886 358.664 375.647 357.436 375.167 356.268C374.688 355.071 374.015 354.007 373.146 353.079C372.278 352.151 371.244 351.417 370.047 350.878C368.849 350.339 367.546 350.069 366.139 350.069C364.641 350.069 363.279 350.354 362.051 350.923C360.853 351.462 359.82 352.211 358.951 353.169C358.113 354.127 357.469 355.19 357.02 356.358C356.571 357.526 356.346 358.724 356.346 359.952Z" fill="black"/>
</svg>
