<svg xmlns="http://www.w3.org/2000/svg" viewBox="0 0 319.03 313.87">
<defs><style>.cls-1{fill:#fff;}</style></defs><g id="Livello_2" data-name="Livello 2"><g id="Livello_1-2" data-name="Livello 1">
<path class="cls-1" d="M262.59,89.4l0-1.77a88.49,88.49,0,0,0-177,0l0,1.77Zm-34.15-54a75.42,75.42,0,0,1,21.62,52.22H176.21ZM175,86.38V12.53a75.53,75.53,0,0,1,52.22,21.63Zm-1.76,0L121,34.16A75.46,75.46,0,0,1,173.2,12.53Zm-53.48-51L172,87.63H98.09A75.51,75.51,0,0,1,119.72,35.41ZM174.08,1.77A86.83,86.83,0,0,1,260.8,87.63h-9a77.76,77.76,0,0,0-155.51,0h-9A86.84,86.84,0,0,1,174.08,1.77Z"/>
<path class="cls-1" d="M262.59,99.17H159.66V201.66H262.59v-13.2h0V99.17Zm-1.77,1.76V134.4a34.22,34.22,0,0,1-33.56-33.47Zm-35.3,0a35.94,35.94,0,0,0,35.3,35.21v15.69a51.66,51.66,0,0,1-51-50.9Zm-17.43,0a53.39,53.39,0,0,0,52.73,52.64v15.69a69.12,69.12,0,0,1-68.43-68.33Zm-17.43,0A70.84,70.84,0,0,0,260.82,171v15.69A86.54,86.54,0,0,1,175,100.93Zm-29.23,99V134.24a106.36,106.36,0,0,0,65,65.66Zm70.62,0a104.43,104.43,0,0,1-70.62-71.56V100.93h11.8a88.3,88.3,0,0,0,87.59,87.52V199.9Z"/>
<path class="cls-1" d="M85.46,201.79h64.43V98.86H85.46ZM148.13,181,129.06,200H117.2l30.93-30.92Zm0-14.36L114.71,200H102.83l45.3-45.3Zm0-14.37L100.34,200H88.48l59.65-59.65Zm0-28.71-60.9,60.88V172.55l60.9-60.9Zm-60.9,20.3,43.19-43.2H142.3L87.23,155.69Zm0-2.5V129.45l28.82-28.82h11.88Zm0-14.38V115.08l14.4-14.4,0-.05h12Zm0,60L148.13,126v11.86l-60.9,60.89ZM131.56,200l16.57-16.57V200Zm16.57-90.87-60.9,60.9V158.18l57.57-57.55h3.33Zm-48.95-8.53-12,12v-12Z"/>
</g>
</g>
</svg>