<svg width="454" height="120" viewBox="0 0 454 120" fill="none" xmlns="http://www.w3.org/2000/svg">
<g clip-path="url(#clip0_19_207)">
<path d="M426.335 19.565C426.335 12.801 427.816 7.96597 430.779 5.05997C433.741 2.09697 437.738 0.615967 442.769 0.615967C445.396 0.615967 447.492 1.00696 449.057 1.78996C450.622 2.51596 451.74 3.43897 452.411 4.55597C453.082 5.67397 453.417 6.81996 453.417 7.99396C453.417 9.44696 452.97 10.733 452.075 11.851C451.181 12.969 449.896 13.556 448.219 13.612C446.598 13.668 445.34 13.248 444.446 12.354C443.551 11.404 443.104 10.23 443.104 8.83298C443.104 8.55298 443.104 8.27396 443.104 7.99396C443.16 7.71496 443.216 7.43498 443.272 7.15598C442.992 6.87598 442.657 6.70798 442.266 6.65298C441.93 6.54098 441.623 6.48495 441.343 6.48495C440.449 6.48495 439.75 6.76397 439.247 7.32297C438.744 7.82597 438.409 8.46898 438.241 9.25198C438.073 10.034 437.99 10.845 437.99 11.683V21.996H447.38V28.452L438.073 28.704L438.157 50.252C438.157 51.034 438.129 52.18 438.073 53.689C438.018 55.143 437.934 56.512 437.822 57.798C438.772 57.686 439.834 57.63 441.008 57.63C442.238 57.574 443.132 57.546 443.691 57.546V63.918H421.305V58.468C422.87 58.468 423.988 58.161 424.658 57.546C425.385 56.931 425.832 56.065 426 54.947C426.223 53.773 426.335 52.46 426.335 51.006V28.871L420.215 28.955V21.996H426.335V19.565Z" fill="black"/>
<path d="M397.569 65.26C393.489 65.26 389.884 64.366 386.753 62.577C383.623 60.732 381.192 58.161 379.459 54.863C377.726 51.509 376.86 47.569 376.86 43.041C376.86 39.128 377.726 35.467 379.459 32.057C381.192 28.648 383.623 25.909 386.753 23.841C389.94 21.717 393.629 20.655 397.821 20.655C400.169 20.655 402.46 20.99 404.696 21.661C406.932 22.276 408.944 23.366 410.733 24.931C412.578 26.496 414.031 28.62 415.093 31.303C416.211 33.986 416.742 37.34 416.686 41.364L389.185 41.867C389.185 44.886 389.548 47.597 390.275 50C391.058 52.404 392.315 54.304 394.048 55.702C395.781 57.099 398.1 57.798 401.007 57.798C402.125 57.798 403.383 57.602 404.78 57.211C406.233 56.82 407.687 56.177 409.14 55.282C410.649 54.332 412.047 53.074 413.332 51.509L417.105 55.031C415.093 57.882 412.941 60.062 410.649 61.571C408.357 63.024 406.066 64.002 403.774 64.505C401.538 65.008 399.47 65.26 397.569 65.26ZM389.688 35.998H405.115C405.06 33.65 404.724 31.806 404.109 30.464C403.55 29.067 402.768 28.061 401.762 27.446C400.756 26.831 399.582 26.524 398.24 26.524C395.781 26.524 393.852 27.418 392.455 29.207C391.058 30.94 390.135 33.203 389.688 35.998Z" fill="black"/>
<path d="M352.286 58.468C353.851 58.468 354.969 58.161 355.639 57.546C356.366 56.931 356.813 56.065 356.981 54.947C357.204 53.773 357.316 52.46 357.316 51.006L357.232 39.1C357.232 35.467 356.673 32.784 355.555 31.051C354.493 29.263 352.789 28.368 350.441 28.368C349.044 28.368 347.646 28.676 346.249 29.291C344.907 29.905 343.761 30.632 342.811 31.471V50.419C342.811 51.202 342.783 52.32 342.727 53.773C342.671 55.171 342.588 56.512 342.476 57.798C343.426 57.686 344.432 57.63 345.494 57.63C346.556 57.574 347.367 57.546 347.926 57.546V63.918H325.958V58.468C327.523 58.468 328.641 58.161 329.312 57.546C330.039 56.931 330.486 56.065 330.654 54.947C330.821 53.773 330.905 52.46 330.905 51.006V16.546C330.905 15.54 330.933 14.394 330.989 13.109C331.045 11.767 331.129 10.481 331.241 9.25198C330.346 9.30798 329.284 9.36398 328.055 9.41898C326.881 9.41898 325.986 9.44696 325.371 9.50296V3.13098C327.999 3.13098 330.179 2.99098 331.911 2.71198C333.7 2.43198 335.097 2.09696 336.104 1.70596C337.166 1.31396 337.892 0.950967 338.284 0.615967H342.811V25.35C343.929 24.456 345.215 23.673 346.668 23.002C348.121 22.276 349.603 21.717 351.112 21.325C352.621 20.878 353.934 20.655 355.052 20.655C360.195 20.655 363.828 22.136 365.952 25.098C368.076 28.005 369.166 32.7 369.222 39.184V50.419C369.222 51.202 369.194 52.32 369.138 53.773C369.082 55.171 368.999 56.512 368.887 57.798C369.781 57.686 370.759 57.63 371.821 57.63C372.883 57.574 373.722 57.546 374.337 57.546V63.918H352.286V58.468Z" fill="black"/>
<path d="M315.27 24.008C314.544 19.369 312.978 15.875 310.575 13.528C308.227 11.18 305.097 9.978 301.184 9.923C298.278 9.923 295.734 10.593 293.554 11.935C291.375 13.276 289.558 15.065 288.105 17.301C286.707 19.537 285.645 22.08 284.918 24.931C284.248 27.781 283.912 30.716 283.912 33.734C283.912 38.541 284.583 42.818 285.925 46.563C287.322 50.252 289.334 53.158 291.961 55.282C294.589 57.406 297.775 58.468 301.52 58.468C305.041 58.468 308.535 57.574 312 55.785C315.466 53.941 318.372 51.398 320.72 48.156L324.745 51.845C322.006 55.59 319.127 58.441 316.109 60.397C313.09 62.297 310.128 63.583 307.221 64.254C304.37 64.924 301.799 65.26 299.507 65.26C295.203 65.26 291.291 64.505 287.769 62.996C284.248 61.431 281.201 59.307 278.63 56.624C276.115 53.885 274.158 50.727 272.761 47.149C271.42 43.516 270.749 39.603 270.749 35.411C270.749 31.61 271.364 27.837 272.593 24.092C273.823 20.347 275.64 16.965 278.043 13.947C280.503 10.873 283.577 8.44102 287.266 6.65302C290.955 4.80802 295.231 3.88599 300.094 3.88599C302.274 3.88599 304.65 4.24901 307.221 4.97601C309.848 5.64601 312.308 6.65299 314.599 7.99399L314.264 4.47299H320.72V24.008H315.27Z" fill="black"/>
<path d="M247.854 65.26C243.829 65.26 240.252 64.366 237.122 62.577C233.992 60.732 231.56 58.161 229.827 54.863C228.095 51.509 227.228 47.569 227.228 43.041C227.228 39.128 228.095 35.467 229.827 32.057C231.56 28.648 233.992 25.909 237.122 23.841C240.308 21.717 243.997 20.655 248.189 20.655C250.537 20.655 252.801 20.99 254.981 21.661C257.161 22.331 259.117 23.449 260.85 25.015C262.583 26.58 263.952 28.648 264.958 31.219C266.02 33.79 266.523 36.92 266.467 40.61L238.296 41.113C238.296 44.578 238.687 47.653 239.47 50.336C240.308 52.963 241.65 55.059 243.494 56.624C245.339 58.133 247.77 58.888 250.789 58.888C252.13 58.888 253.555 58.664 255.065 58.217C256.63 57.714 258.167 56.987 259.676 56.037C261.185 55.031 262.527 53.801 263.701 52.348L266.887 55.282C265.042 57.965 263.002 60.034 260.766 61.487C258.53 62.94 256.294 63.918 254.059 64.421C251.823 64.98 249.754 65.26 247.854 65.26ZM238.715 36.082H256.155C256.099 33.846 255.763 31.974 255.148 30.464C254.59 28.899 253.751 27.725 252.633 26.943C251.515 26.104 250.146 25.685 248.525 25.685C245.786 25.685 243.578 26.608 241.901 28.452C240.28 30.241 239.218 32.784 238.715 36.082Z" fill="black"/>
<path d="M211.944 65.2601C210.379 65.2601 208.841 65.0641 207.332 64.6731C205.879 64.2821 204.537 63.5551 203.308 62.4931C202.134 61.4311 201.184 59.8661 200.457 57.7981C199.73 55.6741 199.367 52.8791 199.367 49.4131L199.535 27.7811L193.582 27.8651V21.9961C195.259 21.9401 196.88 21.3811 198.445 20.3191C200.01 19.2011 201.379 17.7481 202.553 15.9591C203.727 14.1711 204.51 12.2701 204.901 10.2581H210.015L209.931 21.9961H221.754V27.3621L209.931 27.6141L209.848 49.162C209.848 50.839 209.987 52.4041 210.267 53.8571C210.602 55.2541 211.161 56.3721 211.944 57.2111C212.782 58.0491 213.9 58.468 215.298 58.468C216.36 58.468 217.561 58.1331 218.903 57.4621C220.3 56.7921 221.698 55.45 223.095 53.438L226.533 56.5401C225.135 58.6641 223.682 60.3131 222.173 61.4871C220.719 62.6611 219.294 63.5271 217.897 64.0861C216.555 64.6451 215.353 64.9801 214.291 65.0921C213.229 65.2041 212.447 65.2601 211.944 65.2601Z" fill="black"/>
<path d="M178.02 63.918C177.852 63.08 177.741 62.381 177.685 61.822C177.685 61.207 177.657 60.509 177.601 59.726C175.7 61.627 173.66 63.024 171.48 63.918C169.356 64.813 167.148 65.26 164.856 65.26C161.056 65.26 158.121 64.226 156.053 62.158C154.041 60.089 153.034 57.546 153.034 54.528C153.034 51.845 153.761 49.581 155.214 47.736C156.668 45.836 158.568 44.299 160.916 43.125C163.263 41.895 165.863 40.973 168.713 40.358C171.564 39.687 174.387 39.324 177.182 39.268V34.657C177.182 33.036 176.986 31.554 176.595 30.213C176.259 28.815 175.617 27.725 174.666 26.943C173.716 26.104 172.319 25.685 170.474 25.685C169.244 25.741 167.987 26.021 166.701 26.524C165.471 26.971 164.493 27.698 163.767 28.704C164.214 29.207 164.493 29.766 164.605 30.381C164.717 30.94 164.773 31.443 164.773 31.89C164.773 32.896 164.381 33.958 163.599 35.076C162.816 36.138 161.559 36.641 159.826 36.585C158.317 36.529 157.143 35.998 156.304 34.992C155.522 33.986 155.131 32.784 155.131 31.387C155.131 29.263 155.885 27.418 157.394 25.853C158.959 24.232 161.056 22.974 163.683 22.08C166.31 21.13 169.244 20.655 172.486 20.655C177.293 20.655 180.983 21.912 183.554 24.428C186.125 26.943 187.383 30.967 187.327 36.501C187.327 38.458 187.327 40.246 187.327 41.867C187.327 43.432 187.299 45.025 187.243 46.646C187.243 48.211 187.243 49.972 187.243 51.929C187.243 52.767 187.215 53.829 187.159 55.115C187.103 56.344 187.019 57.574 186.908 58.804C187.914 58.692 188.92 58.636 189.926 58.636C190.988 58.58 191.854 58.524 192.525 58.468V63.918H178.02ZM177.098 44.215C175.421 44.327 173.772 44.606 172.151 45.053C170.53 45.445 169.077 46.004 167.791 46.73C166.505 47.457 165.471 48.379 164.689 49.497C163.962 50.559 163.627 51.789 163.683 53.186C163.739 54.919 164.298 56.205 165.36 57.043C166.422 57.826 167.651 58.217 169.049 58.217C170.67 58.217 172.123 57.882 173.409 57.211C174.75 56.54 175.98 55.646 177.098 54.528C177.098 53.969 177.098 53.382 177.098 52.767C177.098 52.152 177.098 51.537 177.098 50.922C177.098 50.14 177.098 49.162 177.098 47.988C177.098 46.814 177.098 45.556 177.098 44.215Z" fill="black"/>
<path d="M127.589 64.17L114.761 35.663C114.09 34.042 113.587 32.728 113.252 31.722C112.916 30.716 112.665 29.877 112.497 29.207C112.385 28.536 112.273 27.865 112.162 27.194L108.892 27.362V21.996H127.086V26.44C125.744 26.44 124.85 26.803 124.403 27.53C124.012 28.201 123.9 29.123 124.067 30.297C124.291 31.415 124.654 32.616 125.157 33.902L130.188 45.976C130.635 46.982 131.082 48.044 131.53 49.162C131.977 50.224 132.396 51.314 132.787 52.432H132.871C133.262 51.37 133.654 50.308 134.045 49.246C134.492 48.128 134.883 47.01 135.219 45.892L139.83 32.98C140.333 31.582 140.808 30.436 141.256 29.542C141.703 28.648 142.122 27.837 142.513 27.111L137.315 27.362V21.996H152.323V26.44C151.037 26.552 149.919 27.167 148.969 28.284C148.019 29.346 147.181 30.66 146.454 32.225C145.727 33.734 145.057 35.299 144.442 36.92L133.626 64.17H127.589Z" fill="black"/>
<path d="M87.8767 59.475C89.4977 59.475 90.6436 59.139 91.3143 58.468C91.9851 57.742 92.4043 56.736 92.572 55.45C92.7397 54.164 92.8235 52.711 92.8235 51.09V35.411C92.8235 34.461 92.8515 33.427 92.9074 32.309C92.9633 31.135 93.0471 29.933 93.1589 28.704C92.2087 28.76 91.1746 28.815 90.0567 28.871C88.9387 28.927 88.0164 28.983 87.2898 29.039V23.589C89.8051 23.589 91.8733 23.477 93.4943 23.254C95.1712 22.974 96.4568 22.639 97.3511 22.248C98.3014 21.856 98.9721 21.493 99.3634 21.158H103.136V51.929C103.136 52.823 103.108 53.913 103.053 55.199C103.053 56.428 102.969 57.63 102.801 58.804C103.695 58.692 104.646 58.636 105.652 58.636C106.714 58.58 107.58 58.552 108.251 58.552V63.918H87.8767V59.475ZM97.5188 13.947C95.8978 13.947 94.5284 13.36 93.4104 12.186C92.2925 10.957 91.7336 9.475 91.7336 7.743C91.7336 6.01 92.2925 4.529 93.4104 3.299C94.5843 2.069 95.9537 1.45398 97.5188 1.45398C99.1398 1.45398 100.481 2.069 101.543 3.299C102.661 4.529 103.22 6.01 103.22 7.743C103.22 9.475 102.689 10.957 101.627 12.186C100.565 13.36 99.1957 13.947 97.5188 13.947Z" fill="black"/>
<path d="M50.6609 59.475C52.2819 59.475 53.4278 59.139 54.0985 58.468C54.7693 57.742 55.1885 56.736 55.3562 55.45C55.5239 54.164 55.6077 52.711 55.6077 51.09V35.327C55.6077 34.321 55.6357 33.259 55.6916 32.141C55.7475 31.023 55.8313 29.877 55.9431 28.704C54.9929 28.76 53.9588 28.815 52.8408 28.871C51.7229 28.871 50.8006 28.899 50.074 28.955V23.589H53.1762C55.4121 23.589 57.2846 23.338 58.7938 22.835C60.303 22.276 61.365 21.717 61.9799 21.158H65.5014C65.6132 21.828 65.697 22.89 65.7529 24.344C65.8088 25.797 65.8367 27.25 65.8367 28.704C67.1224 27.027 68.4639 25.601 69.8613 24.428C71.2587 23.198 72.684 22.276 74.1373 21.661C75.6465 20.99 77.1837 20.655 78.7488 20.655C80.5375 20.655 82.1026 21.158 83.4441 22.164C84.8415 23.17 85.5402 24.791 85.5402 27.027C85.5402 27.753 85.3446 28.536 84.9533 29.374C84.6179 30.213 84.0589 30.912 83.2764 31.471C82.5497 32.03 81.5436 32.309 80.258 32.309C79.0842 32.309 77.9662 31.946 76.9042 31.219C75.8981 30.436 75.3671 29.207 75.3112 27.53C74.1373 27.474 72.9076 27.893 71.622 28.788C70.3923 29.682 69.2744 30.772 68.2682 32.057C67.2621 33.343 66.4795 34.657 65.9206 35.998L66.0044 51.929C66.0044 52.823 65.9765 53.913 65.9206 55.199C65.8647 56.428 65.7808 57.63 65.669 58.804C66.5634 58.692 67.5136 58.636 68.5198 58.636C69.5259 58.58 70.3643 58.552 71.0351 58.552V63.918H50.6609V59.475Z" fill="black"/>
<path d="M0.527832 59.307C2.09293 59.251 3.2947 58.999 4.13314 58.552C4.97159 58.049 5.5585 57.211 5.89388 56.037C6.22926 54.807 6.39695 53.13 6.39695 51.006V17.552C6.39695 16.155 6.42489 14.813 6.48079 13.528C6.59258 12.242 6.67643 11.236 6.73232 10.509C5.78209 10.565 4.69211 10.621 3.46239 10.677C2.23267 10.677 1.25448 10.705 0.527832 10.761V5.227C4.16109 5.171 7.8223 5.14302 11.5115 5.14302C15.2006 5.14302 18.8898 5.11501 22.5789 5.06001C27.6655 5.00401 32.0534 5.64602 35.7425 6.98802C39.4317 8.27402 42.2544 10.258 44.2108 12.941C46.1672 15.568 47.1454 18.978 47.1454 23.17C47.1454 25.406 46.6702 27.642 45.72 29.877C44.8257 32.057 43.3724 34.098 41.3601 35.998C39.4037 37.843 36.8045 39.352 33.5626 40.526C30.3765 41.7 26.5196 42.342 21.992 42.454C21.0977 42.454 20.2313 42.454 19.3928 42.454C18.5544 42.454 17.7439 42.426 16.9613 42.37V51.342C16.9613 52.907 16.9334 54.332 16.8775 55.618C16.8216 56.903 16.7378 57.91 16.626 58.636C17.3526 58.58 18.1631 58.552 19.0575 58.552C19.9518 58.496 20.8461 58.468 21.7405 58.468C22.6907 58.413 23.4174 58.385 23.9204 58.385V63.918H0.527832V59.307ZM16.9613 37.088C17.688 37.144 18.3867 37.2 19.0575 37.256C19.7282 37.312 20.4549 37.34 21.2374 37.34C24.3676 37.34 26.9947 36.781 29.1188 35.663C31.2988 34.545 32.9477 32.952 34.0656 30.884C35.1835 28.76 35.7425 26.188 35.7425 23.17C35.7425 20.431 35.3512 18.195 34.5687 16.462C33.7861 14.73 32.7521 13.416 31.4664 12.522C30.1808 11.571 28.7555 10.929 27.1904 10.593C25.6253 10.258 24.0602 10.09 22.4951 10.09C21.0418 10.09 19.8959 10.314 19.0575 10.761C18.2749 11.208 17.716 12.019 17.3806 13.192C17.1011 14.31 16.9613 15.848 16.9613 17.804V37.088Z" fill="black"/>
<path d="M76.7457 119.26V94.644H87.8409C89.3982 94.644 90.7907 95.033 92.0185 95.812C93.2463 96.59 94.1896 97.579 94.8485 98.776C95.5372 99.944 95.8816 101.172 95.8816 102.46C95.8816 103.807 95.5522 105.08 94.8934 106.278C94.2645 107.476 93.3661 108.449 92.1982 109.198C91.0602 109.946 89.6976 110.321 88.1105 110.321H79.5307V119.26H76.7457ZM79.5307 107.805H87.9757C89.0238 107.805 89.9222 107.566 90.6709 107.087C91.4196 106.577 92.0035 105.919 92.4228 105.11C92.842 104.302 93.0517 103.433 93.0517 102.505C93.0517 101.487 92.8121 100.588 92.3329 99.81C91.8538 99.001 91.2099 98.357 90.4014 97.878C89.5928 97.399 88.6944 97.159 87.7062 97.159H79.5307V107.805ZM116.947 119.26L128.177 94.644H130.513L141.653 119.26H138.688L135.274 111.848H123.371L120.002 119.26H116.947ZM129.345 98.147L124.044 109.377H134.556L129.345 98.147ZM166.94 119.26V94.644H169.725V116.744H184.594V119.26H166.94ZM227.947 116.744V119.26H209.844V94.644H227.587V97.159H212.629V105.559H225.701V107.895H212.629V116.744H227.947ZM254.371 119.26V94.644H265.736C267.293 94.644 268.67 95.033 269.868 95.812C271.096 96.59 272.054 97.579 272.743 98.776C273.432 99.944 273.776 101.172 273.776 102.46C273.776 103.628 273.522 104.721 273.013 105.739C272.534 106.757 271.845 107.626 270.946 108.344C270.078 109.063 269.045 109.542 267.847 109.782L274.405 119.26H271.171L264.972 110.321H257.156V119.26H254.371ZM257.156 107.805H265.826C266.844 107.805 267.727 107.566 268.476 107.087C269.254 106.577 269.853 105.919 270.273 105.11C270.692 104.272 270.901 103.388 270.901 102.46C270.901 101.502 270.662 100.633 270.183 99.854C269.734 99.046 269.105 98.402 268.296 97.923C267.488 97.414 266.574 97.159 265.556 97.159H257.156V107.805ZM324.325 119.26V99.72L314.713 114.768H313.095L303.438 99.72V119.26H300.653V94.644H303.572L313.904 110.995L324.236 94.644H327.155V119.26H324.325ZM366.139 119.44C364.252 119.44 362.53 119.095 360.973 118.406C359.445 117.688 358.113 116.744 356.975 115.576C355.867 114.379 355.013 113.046 354.414 111.579C353.815 110.081 353.516 108.539 353.516 106.952C353.516 105.305 353.83 103.748 354.459 102.28C355.088 100.783 355.972 99.45 357.11 98.282C358.248 97.114 359.58 96.201 361.108 95.542C362.665 94.853 364.357 94.509 366.183 94.509C368.04 94.509 369.732 94.868 371.259 95.587C372.817 96.306 374.149 97.264 375.257 98.462C376.365 99.66 377.219 101.007 377.818 102.505C378.417 103.972 378.716 105.469 378.716 106.997C378.716 108.644 378.402 110.216 377.773 111.713C377.144 113.211 376.261 114.543 375.123 115.711C374.015 116.849 372.682 117.763 371.125 118.451C369.597 119.11 367.935 119.44 366.139 119.44ZM356.346 106.952C356.346 108.24 356.571 109.482 357.02 110.68C357.499 111.848 358.173 112.911 359.041 113.869C359.91 114.798 360.943 115.532 362.141 116.071C363.368 116.61 364.701 116.879 366.139 116.879C367.636 116.879 368.983 116.595 370.181 116.026C371.379 115.457 372.397 114.693 373.236 113.735C374.074 112.776 374.718 111.713 375.167 110.545C375.647 109.377 375.886 108.18 375.886 106.952C375.886 105.664 375.647 104.436 375.167 103.268C374.688 102.071 374.015 101.007 373.146 100.079C372.278 99.151 371.244 98.417 370.047 97.878C368.849 97.339 367.546 97.069 366.139 97.069C364.641 97.069 363.279 97.354 362.051 97.923C360.853 98.462 359.82 99.211 358.951 100.169C358.113 101.127 357.469 102.19 357.02 103.358C356.571 104.526 356.346 105.724 356.346 106.952Z" fill="black"/>
</g>
<defs>
<clipPath id="clip0_19_207">
<rect width="454" height="120" fill="white"/>
</clipPath>
</defs>
</svg>
