<svg xmlns="http://www.w3.org/2000/svg" viewBox="0 0 85.17 84.81"><defs><style>.cls-1{fill:#fff;}</style></defs><g id="Livello_2" data-name="Livello 2"><g id="Livello_1-2" data-name="Livello 1"><path class="cls-1" d="M85.16,0H0V84.81H85.16V73.89h0V0ZM83.7,1.46V29.15A28.31,28.31,0,0,1,55.93,1.46Zm-29.21,0A29.74,29.74,0,0,0,83.7,30.59v13A42.73,42.73,0,0,1,41.51,1.46Zm-14.42,0A44.18,44.18,0,0,0,83.7,45V58A57.18,57.18,0,0,1,27.08,1.46Zm-14.42,0a58.62,58.62,0,0,0,58.05,58v13a71.61,71.61,0,0,1-71-71ZM1.46,83.35V29A88,88,0,0,0,55.22,83.35Zm58.44,0A86.39,86.39,0,0,1,1.46,24.14V1.46h9.77A73.07,73.07,0,0,0,83.7,73.88v9.47Z"/></g></g></svg>