<svg xmlns="http://www.w3.org/2000/svg" viewBox="0 0 94.09 94.3"><defs><style>.cls-1{fill:#9b80b9;}.cls-2{fill:#160f0f;stroke:#1d1d1b;stroke-miterlimit:10;stroke-width:0.25px;}</style></defs><g id="Livello_2" data-name="Livello 2"><g id="Livello_1-2" data-name="Livello 1"><rect class="cls-1" x="10.39" y="10.6" width="83.7" height="83.7"/><path class="cls-2" d="M85.29.12H.12V84.94H85.29V74h0V.12ZM83.83,1.59V29.28A28.3,28.3,0,0,1,56.06,1.59Zm-29.21,0A29.75,29.75,0,0,0,83.83,30.72v13A42.75,42.75,0,0,1,41.63,1.59Zm-14.42,0A44.16,44.16,0,0,0,83.83,45.14v13A57.19,57.19,0,0,1,27.21,1.59Zm-14.43,0a58.62,58.62,0,0,0,58.06,58v13a71.62,71.62,0,0,1-71-71ZM1.59,83.47V29.14A88,88,0,0,0,55.34,83.47Zm58.43,0A86.4,86.4,0,0,1,1.59,24.26V1.59h9.76A73.06,73.06,0,0,0,83.83,74v9.47Z"/></g></g></svg>