<svg xmlns="http://www.w3.org/2000/svg" viewBox="0 0 53.31 85.17"><defs><style>.cls-1{fill:#fff;}</style></defs><g id="Livello_2" data-name="Livello 2"><g id="Livello_1-2" data-name="Livello 1"><path class="cls-1" d="M0,85.17H53.31V0H0ZM51.85,67.94,36.08,83.71H26.26L51.85,58.12Zm0-11.88L24.2,83.71H14.37L51.85,46.23Zm0-11.9L12.31,83.71H2.5L51.85,34.35Zm0-23.75L1.46,70.79V61L51.85,10.58ZM1.46,37.2,37.2,1.46H47L1.46,47Zm0-2.06V25.31L25.31,1.46h9.83Zm0-11.9V13.42L13.38,1.5l0,0h9.9Zm0,49.61L51.85,22.48v9.81L1.46,82.68ZM38.14,83.71,51.85,70V83.71ZM51.85,8.52,1.46,58.91V49.08L49.1,1.46h2.75ZM11.35,1.46,1.46,11.35V1.46Z"/></g></g></svg>