<svg xmlns="http://www.w3.org/2000/svg" viewBox="0 0 60.25 93.91"><defs><style>.cls-1{fill:#ed7568;}.cls-2{fill:#160f0f;stroke:#1d1d1b;stroke-miterlimit:10;stroke-width:0.25px;}</style></defs><g id="Livello_2" data-name="Livello 2"><g id="Livello_1-2" data-name="Livello 1"><rect class="cls-1" y="8.99" width="53.96" height="84.92"/><path class="cls-2" d="M6.82,85.29H60.13V.12H6.82ZM58.67,68.06,42.89,83.83H33.08L58.67,58.25Zm0-11.88L31,83.83H21.19L58.67,46.35Zm0-11.89L19.12,83.83H9.31L58.67,34.48Zm0-23.75L8.28,70.91V61.1L58.67,10.71ZM8.28,37.33,44,1.59h9.83L8.28,47.14Zm0-2.07V25.44L32.12,1.59H42Zm0-11.89V13.54L20.19,1.63l0,0h9.91ZM8.28,73,58.67,22.6v9.81L8.28,82.8ZM45,83.83l13.71-13.7v13.7ZM58.67,8.64,8.28,59V49.21L55.91,1.59h2.76Zm-40.5-7L8.28,11.47V1.59Z"/></g></g></svg>