<svg xmlns="http://www.w3.org/2000/svg" viewBox="0 0 53.56 85.42"><defs><style>.cls-1{fill:#160f0f;stroke:#1d1d1b;stroke-miterlimit:10;stroke-width:0.25px;}</style></defs><g id="Livello_2" data-name="Livello 2"><g id="Livello_1-2" data-name="Livello 1"><path class="cls-1" d="M.12,85.29H53.44V.12H.12ZM52,68.06,36.2,83.83H26.39L52,58.25Zm0-11.88L24.32,83.83H14.5L52,46.35Zm0-11.89L12.43,83.83H2.62L52,34.48Zm0-23.75L1.59,70.91V61.1L52,10.71ZM1.59,37.33,37.33,1.59h9.83L1.59,47.14Zm0-2.07V25.44L25.43,1.59h9.83Zm0-11.89V13.54L13.5,1.63l0,0h9.91ZM1.59,73,52,22.6v9.81L1.59,82.8ZM38.27,83.83,52,70.13v13.7ZM52,8.64,1.59,59V49.21L49.22,1.59H52Zm-40.5-7L1.59,11.47V1.59Z"/></g></g></svg>