<svg viewBox="0 0 222.12 27.8"><path fill="none" d="M30.73 18.07h9.91L35.73 5.62l-5 12.45zm75.41 0h9.91l-4.91-12.45-5 12.45z"></path><path fill="#524e4e" d="M20.12.5a.84.84 0 0 0-.59-.21H.85A.87.87 0 0 0 .24.5a.74.74 0 0 0-.24.57v1.84a.93.93 0 0 0 .22.67.91.91 0 0 0 .61.22h7.58v22.7a.83.83 0 0 0 .26.6.88.88 0 0 0 .59.24h1.84a.8.8 0 0 0 .63-.26.91.91 0 0 0 .27-.58V3.8h7.58a.8.8 0 0 0 .62-.3 1 1 0 0 0 .22-.63v-1.8a.8.8 0 0 0-.3-.57zm27.59 25.82v-.18L37.26.93a1.38 1.38 0 0 0-.08-.2A.83.83 0 0 0 37 .5a.47.47 0 0 0-.26-.19 1 1 0 0 0-.45-.08h-1.15a1.48 1.48 0 0 0-.47.08.8.8 0 0 0-.26.19 1.35 1.35 0 0 0-.14.22 1.85 1.85 0 0 0-.1.2L23.68 26.16v.49c0 .42.27.62.83.62h1.92a1 1 0 0 0 .61-.18 1.09 1.09 0 0 0 .36-.48c.17-.51.43-1.2.77-2.09s.75-1.86 1.18-2.93h12.7l2 5a1.09 1.09 0 0 0 .36.48 1 1 0 0 0 .61.18H47c.54 0 .83-.2.83-.62a.39.39 0 0 0 0-.14 1.33 1.33 0 0 0-.12-.17zm-17-8.24l5-12.46 4.91 12.46zM74 26.57L61.54 11.85c1.78-1.86 3.54-3.7 5.26-5.52S70.24 2.65 72 .79v.06a.55.55 0 0 0 .2-.36c0-.15-.16-.21-.45-.21h-3.63a1.13 1.13 0 0 0-.83.57l-12.58 13.2v-13a.75.75 0 0 0-.26-.55.89.89 0 0 0-.59-.23H52a.76.76 0 0 0-.61.25.8.8 0 0 0-.2.56V26.5a.72.72 0 0 0 .81.8h1.88a.73.73 0 0 0 .83-.8v-7.39l4.45-4.73 10.29 12.37a1 1 0 0 0 .81.56h3.6c.26 0 .4-.06.4-.2a.59.59 0 0 0-.06-.18 1.69 1.69 0 0 0-.2-.36zm21.81-2.81H81.07v-8.94H92.6a.8.8 0 0 0 .61-.26.92.92 0 0 0 .2-.59v-1.86a.8.8 0 0 0-.24-.65.94.94 0 0 0-.57-.18H81.07V3.8h14.66a.85.85 0 0 0 .67-.3 1 1 0 0 0 .2-.61V1.13c0-.58-.26-.87-.83-.87H78.33c-.55 0-.81.27-.81.83V26.5c0 .5.28.76.81.76h17.5a.71.71 0 0 0 .81-.8v-1.85c0-.57-.26-.85-.83-.85z"></path><path fill="#fb8842" d="M123.13 26.32v-.18L112.68.93a1.38 1.38 0 0 0-.08-.2 1.21 1.21 0 0 0-.15-.22.47.47 0 0 0-.26-.19 1 1 0 0 0-.44-.08h-1.2a1.36 1.36 0 0 0-.46.08.8.8 0 0 0-.26.19 1 1 0 0 0-.15.22 1.85 1.85 0 0 0-.1.2L99.07 26.16v.49c0 .42.26.62.83.62h1.92a1 1 0 0 0 .6-.18 1 1 0 0 0 .37-.48c.18-.51.44-1.2.79-2.09s.75-1.86 1.17-2.93h12.78l2 5a1.09 1.09 0 0 0 .36.48 1 1 0 0 0 .61.18h1.92c.55 0 .83-.2.83-.62a.39.39 0 0 0 0-.14c-.1.01-.1-.11-.12-.17zm-17-8.24l5-12.46 4.91 12.46z"></path><path fill="#524e4e" d="M132.43 6.63a11 11 0 0 1 7.76-3.13 11.85 11.85 0 0 1 3.06.58A10.58 10.58 0 0 1 146 5.5a3.61 3.61 0 0 0 .36.2.79.79 0 0 0 .28.06.88.88 0 0 0 .65-.44l1-1.6a.68.68 0 0 0 .14-.44.71.71 0 0 0-.12-.39 1 1 0 0 0-.32-.34 11.6 11.6 0 0 0-4-1.88 13.54 13.54 0 0 0-4.3-.67 13.77 13.77 0 0 0-3.69.5 13.33 13.33 0 0 0-3.32 1.39 14.11 14.11 0 0 0-2.81 2.18 14.44 14.44 0 0 0-2.18 2.83 14.14 14.14 0 0 0-1.4 10.7 14 14 0 0 0 3.56 6.13 14.11 14.11 0 0 0 2.81 2.18 13.33 13.33 0 0 0 3.34 1.4 13.55 13.55 0 0 0 3.7.49 13.7 13.7 0 0 0 4.45-.71 14.12 14.12 0 0 0 3.76-1.94.75.75 0 0 0 .44-.69 1 1 0 0 0-.12-.44l-1-1.72c-.18-.3-.39-.46-.61-.46a1.12 1.12 0 0 0-.56.2 16 16 0 0 1-1.78 1c-.57.26-1.12.48-1.62.67a10.46 10.46 0 0 1-1.52.36 12.43 12.43 0 0 1-1.49.1 10.23 10.23 0 0 1-3.93-.77 9.87 9.87 0 0 1-3.27-2.12 10.65 10.65 0 0 1-2.25-3.26 10.24 10.24 0 0 1-.82-4.1 10 10 0 0 1 .82-4 10.43 10.43 0 0 1 2.23-3.29zM174.58.5a.92.92 0 0 0-.6-.23h-1.84a.72.72 0 0 0-.59.25.82.82 0 0 0-.22.56v10.2H156V1.07a.78.78 0 0 0-.26-.56.81.81 0 0 0-.59-.25h-1.88a.72.72 0 0 0-.58.25.82.82 0 0 0-.22.56V26.5a.71.71 0 0 0 .8.8h1.84c.59 0 .87-.28.87-.8V14.8h15.35v11.7a.71.71 0 0 0 .81.8H174c.58 0 .87-.28.87-.8V1.07a.69.69 0 0 0-.29-.57zm23.96 23.26H183.8v-8.94h11.55a.77.77 0 0 0 .6-.26.87.87 0 0 0 .21-.59v-1.86a.77.77 0 0 0-.25-.65.89.89 0 0 0-.56-.18H183.8V3.8h14.66a.86.86 0 0 0 .67-.26 1 1 0 0 0 .2-.61v-1.8c0-.58-.26-.87-.83-.87h-17.45c-.54 0-.8.27-.8.83V26.5a.7.7 0 0 0 .8.76h17.51a.71.71 0 0 0 .81-.8v-1.85c0-.57-.26-.85-.83-.85zM221.29.26H204.1a.72.72 0 0 0-.81.83V26.5a.71.71 0 0 0 .81.76h1.9c.57 0 .85-.26.85-.76V16.28h11.41a.76.76 0 0 0 .58-.27.89.89 0 0 0 .2-.58v-1.84a.76.76 0 0 0-.8-.85h-11.41V3.8h14.46a.83.83 0 0 0 .6-.26 1 1 0 0 0 .23-.61v-1.8c0-.58-.27-.87-.83-.87z"></path></svg>